solid ascii
  facet normal 0.000000e+000 -0.000000e+000 -1.000000e+000
    outer loop
      vertex   3.700000e+001 6.622195e+001 2.114600e+002
      vertex   4.487381e+001 6.697195e+001 2.114600e+002
      vertex   4.589653e+001 6.547195e+001 2.114600e+002
    endloop
  endfacet
  facet normal 0.000000e+000 0.000000e+000 -1.000000e+000
    outer loop
      vertex   3.700000e+001 6.622195e+001 2.114600e+002
      vertex   4.589653e+001 6.547195e+001 2.114600e+002
      vertex   2.810347e+001 6.547195e+001 2.114600e+002
    endloop
  endfacet
  facet normal 0.000000e+000 -7.071068e-001 -7.071068e-001
    outer loop
      vertex   3.700000e+001 6.520747e+001 2.117245e+002
      vertex   2.810347e+001 6.547195e+001 2.114600e+002
      vertex   4.589653e+001 6.547195e+001 2.114600e+002
    endloop
  endfacet
  facet normal 0.000000e+000 -7.071068e-001 -7.071068e-001
    outer loop
      vertex   3.700000e+001 6.520747e+001 2.117245e+002
      vertex   2.754823e+001 6.517851e+001 2.117534e+002
      vertex   2.810347e+001 6.547195e+001 2.114600e+002
    endloop
  endfacet
  facet normal 5.842301e-001 3.983433e-001 -7.071052e-001
    outer loop
      vertex   4.585240e+001 6.599589e+001 2.117187e+002
      vertex   4.487381e+001 6.697195e+001 2.114600e+002
      vertex   4.547897e+001 6.697195e+001 2.119600e+002
    endloop
  endfacet
  facet normal 0.000000e+000 0.000000e+000 -1.000000e+000
    outer loop
      vertex   3.700000e+001 6.622195e+001 2.114600e+002
      vertex   2.810347e+001 6.547195e+001 2.114600e+002
      vertex   2.912619e+001 6.697195e+001 2.114600e+002
    endloop
  endfacet
  facet normal -5.842268e-001 3.983329e-001 -7.071138e-001
    outer loop
      vertex   2.814760e+001 6.599589e+001 2.117187e+002
      vertex   2.810347e+001 6.547195e+001 2.114600e+002
      vertex   2.754823e+001 6.517851e+001 2.117534e+002
    endloop
  endfacet
  facet normal 5.842271e-001 3.983345e-001 -7.071127e-001
    outer loop
      vertex   4.585240e+001 6.599589e+001 2.117187e+002
      vertex   4.645177e+001 6.517851e+001 2.117534e+002
      vertex   4.589653e+001 6.547195e+001 2.114600e+002
    endloop
  endfacet
  facet normal 5.842245e-001 3.983351e-001 -7.071145e-001
    outer loop
      vertex   4.585240e+001 6.599589e+001 2.117187e+002
      vertex   4.589653e+001 6.547195e+001 2.114600e+002
      vertex   4.487381e+001 6.697195e+001 2.114600e+002
    endloop
  endfacet
  facet normal 0.000000e+000 1.000000e+000 0.000000e+000
    outer loop
      vertex   3.821128e+001 6.697195e+001 2.478629e+002
      vertex   4.547897e+001 6.697195e+001 2.119600e+002
      vertex   4.487381e+001 6.697195e+001 2.114600e+002
    endloop
  endfacet
  facet normal 0.000000e+000 0.000000e+000 -1.000000e+000
    outer loop
      vertex   3.700000e+001 6.622195e+001 2.114600e+002
      vertex   2.912619e+001 6.697195e+001 2.114600e+002
      vertex   4.487381e+001 6.697195e+001 2.114600e+002
    endloop
  endfacet
  facet normal 0.000000e+000 -7.071068e-001 -7.071068e-001
    outer loop
      vertex   3.700000e+001 6.520747e+001 2.117245e+002
      vertex   4.589653e+001 6.547195e+001 2.114600e+002
      vertex   4.645177e+001 6.517851e+001 2.117534e+002
    endloop
  endfacet
  facet normal -5.842301e-001 3.983433e-001 -7.071052e-001
    outer loop
      vertex   2.814760e+001 6.599589e+001 2.117187e+002
      vertex   2.852103e+001 6.697195e+001 2.119600e+002
      vertex   2.912619e+001 6.697195e+001 2.114600e+002
    endloop
  endfacet
  facet normal 0.000000e+000 1.000000e+000 -0.000000e+000
    outer loop
      vertex   3.821128e+001 6.697195e+001 2.478629e+002
      vertex   2.912619e+001 6.697195e+001 2.114600e+002
      vertex   2.852103e+001 6.697195e+001 2.119600e+002
    endloop
  endfacet
  facet normal 0.000000e+000 1.000000e+000 0.000000e+000
    outer loop
      vertex   3.821128e+001 6.697195e+001 2.478629e+002
      vertex   4.487381e+001 6.697195e+001 2.114600e+002
      vertex   2.912619e+001 6.697195e+001 2.114600e+002
    endloop
  endfacet
  facet normal -5.842235e-001 3.983338e-001 -7.071161e-001
    outer loop
      vertex   2.814760e+001 6.599589e+001 2.117187e+002
      vertex   2.912619e+001 6.697195e+001 2.114600e+002
      vertex   2.810347e+001 6.547195e+001 2.114600e+002
    endloop
  endfacet
  facet normal 5.842395e-001 3.983448e-001 -7.070966e-001
    outer loop
      vertex   4.585240e+001 6.599589e+001 2.117187e+002
      vertex   4.547897e+001 6.697195e+001 2.119600e+002
      vertex   4.656094e+001 6.538506e+001 2.119600e+002
    endloop
  endfacet
  facet normal 5.842391e-001 3.983440e-001 -7.070974e-001
    outer loop
      vertex   4.585240e+001 6.599589e+001 2.117187e+002
      vertex   4.656094e+001 6.538506e+001 2.119600e+002
      vertex   4.645177e+001 6.517851e+001 2.117534e+002
    endloop
  endfacet
  facet normal -5.842400e-001 3.983433e-001 -7.070971e-001
    outer loop
      vertex   2.814760e+001 6.599589e+001 2.117187e+002
      vertex   2.754823e+001 6.517851e+001 2.117534e+002
      vertex   2.743906e+001 6.538506e+001 2.119600e+002
    endloop
  endfacet
  facet normal -5.842409e-001 3.983450e-001 -7.070953e-001
    outer loop
      vertex   2.814760e+001 6.599589e+001 2.117187e+002
      vertex   2.743906e+001 6.538506e+001 2.119600e+002
      vertex   2.852103e+001 6.697195e+001 2.119600e+002
    endloop
  endfacet
  facet normal -0.000000e+000 -7.071068e-001 -7.071068e-001
    outer loop
      vertex   3.700000e+001 6.520747e+001 2.117245e+002
      vertex   4.634261e+001 6.497195e+001 2.119600e+002
      vertex   2.765739e+001 6.497195e+001 2.119600e+002
    endloop
  endfacet
  facet normal 0.000000e+000 -7.071068e-001 -7.071068e-001
    outer loop
      vertex   3.700000e+001 6.520747e+001 2.117245e+002
      vertex   4.645177e+001 6.517851e+001 2.117534e+002
      vertex   4.634261e+001 6.497195e+001 2.119600e+002
    endloop
  endfacet
  facet normal 0.000000e+000 -7.071068e-001 -7.071068e-001
    outer loop
      vertex   3.700000e+001 6.520747e+001 2.117245e+002
      vertex   2.765739e+001 6.497195e+001 2.119600e+002
      vertex   2.754823e+001 6.517851e+001 2.117534e+002
    endloop
  endfacet
  facet normal -8.841155e-001 -4.672687e-001 0.000000e+000
    outer loop
      vertex   2.754823e+001 6.517851e+001 2.467347e+002
      vertex   2.743906e+001 6.538506e+001 2.119600e+002
      vertex   2.754823e+001 6.517851e+001 2.117534e+002
    endloop
  endfacet
  facet normal -8.841224e-001 -4.672551e-001 0.000000e+000
    outer loop
      vertex   2.754823e+001 6.517851e+001 2.467347e+002
      vertex   2.754823e+001 6.517851e+001 2.117534e+002
      vertex   2.765739e+001 6.497195e+001 2.119600e+002
    endloop
  endfacet
  facet normal 8.841190e-001 -4.672619e-001 -8.607335e-006
    outer loop
      vertex   4.656094e+001 6.538506e+001 2.119600e+002
      vertex   4.634261e+001 6.497195e+001 2.119600e+002
      vertex   4.645177e+001 6.517851e+001 2.117534e+002
    endloop
  endfacet
  facet normal -8.841226e-001 -4.672552e-001 0.000000e+000
    outer loop
      vertex   2.754823e+001 6.517851e+001 2.467347e+002
      vertex   2.765739e+001 6.497195e+001 2.119600e+002
      vertex   2.765739e+001 6.497195e+001 2.990000e+002
    endloop
  endfacet
  facet normal -8.262280e-001 5.633357e-001 0.000000e+000
    outer loop
      vertex   2.802006e+001 6.623720e+001 2.640840e+002
      vertex   2.852103e+001 6.697195e+001 2.985000e+002
      vertex   2.852103e+001 6.697195e+001 2.119600e+002
    endloop
  endfacet
  facet normal -8.262281e-001 5.633358e-001 0.000000e+000
    outer loop
      vertex   2.802006e+001 6.623720e+001 2.640840e+002
      vertex   2.852103e+001 6.697195e+001 2.119600e+002
      vertex   2.743906e+001 6.538506e+001 2.119600e+002
    endloop
  endfacet
  facet normal -8.262280e-001 5.633358e-001 0.000000e+000
    outer loop
      vertex   2.802006e+001 6.623720e+001 2.640840e+002
      vertex   2.743906e+001 6.538506e+001 2.119600e+002
      vertex   2.743906e+001 6.538506e+001 2.990000e+002
    endloop
  endfacet
  facet normal 0.000000e+000 1.000000e+000 0.000000e+000
    outer loop
      vertex   3.821128e+001 6.697195e+001 2.478629e+002
      vertex   4.547897e+001 6.697195e+001 2.912000e+002
      vertex   4.547897e+001 6.697195e+001 2.119600e+002
    endloop
  endfacet
  facet normal -8.841153e-001 -4.672687e-001 -0.000000e+000
    outer loop
      vertex   2.754823e+001 6.517851e+001 2.467347e+002
      vertex   2.743906e+001 6.538506e+001 2.990000e+002
      vertex   2.743906e+001 6.538506e+001 2.119600e+002
    endloop
  endfacet
  facet normal 0.000000e+000 1.000000e+000 0.000000e+000
    outer loop
      vertex   3.821128e+001 6.697195e+001 2.478629e+002
      vertex   2.852103e+001 6.697195e+001 2.119600e+002
      vertex   2.852103e+001 6.697195e+001 2.985000e+002
    endloop
  endfacet
  facet normal 8.841205e-001 -4.672590e-001 -1.931456e-008
    outer loop
      vertex   4.635743e+001 6.500000e+001 2.917000e+002
      vertex   4.634261e+001 6.497195e+001 2.119600e+002
      vertex   4.656094e+001 6.538506e+001 2.913149e+002
    endloop
  endfacet
  facet normal 8.841189e-001 -4.672619e-001 0.000000e+000
    outer loop
      vertex   4.656094e+001 6.538506e+001 2.913149e+002
      vertex   4.634261e+001 6.497195e+001 2.119600e+002
      vertex   4.656094e+001 6.538506e+001 2.119600e+002
    endloop
  endfacet
  facet normal 8.262276e-001 5.633364e-001 -4.621366e-008
    outer loop
      vertex   4.648257e+001 6.550000e+001 2.912000e+002
      vertex   4.656094e+001 6.538506e+001 2.119600e+002
      vertex   4.547897e+001 6.697195e+001 2.119600e+002
    endloop
  endfacet
  facet normal 8.262424e-001 5.633147e-001 -0.000000e+000
    outer loop
      vertex   4.656094e+001 6.538506e+001 2.913149e+002
      vertex   4.656094e+001 6.538506e+001 2.119600e+002
      vertex   4.648257e+001 6.550000e+001 2.912000e+002
    endloop
  endfacet
  facet normal 8.262264e-001 5.633382e-001 0.000000e+000
    outer loop
      vertex   4.547897e+001 6.697195e+001 2.912000e+002
      vertex   4.648257e+001 6.550000e+001 2.912000e+002
      vertex   4.547897e+001 6.697195e+001 2.119600e+002
    endloop
  endfacet
  facet normal 8.840978e-001 -4.673020e-001 0.000000e+000
    outer loop
      vertex   4.634261e+001 6.497195e+001 2.990000e+002
      vertex   4.634261e+001 6.497195e+001 2.119600e+002
      vertex   4.635743e+001 6.500000e+001 2.917000e+002
    endloop
  endfacet
  facet normal 0.000000e+000 -1.000000e+000 0.000000e+000
    outer loop
      vertex   3.700000e+001 6.497195e+001 2.554800e+002
      vertex   4.634261e+001 6.497195e+001 2.119600e+002
      vertex   4.634261e+001 6.497195e+001 2.990000e+002
    endloop
  endfacet
  facet normal 0.000000e+000 -1.000000e+000 0.000000e+000
    outer loop
      vertex   3.700000e+001 6.497195e+001 2.554800e+002
      vertex   2.765739e+001 6.497195e+001 2.119600e+002
      vertex   4.634261e+001 6.497195e+001 2.119600e+002
    endloop
  endfacet
  facet normal 0.000000e+000 -1.000000e+000 0.000000e+000
    outer loop
      vertex   3.700000e+001 6.497195e+001 2.554800e+002
      vertex   2.765739e+001 6.497195e+001 2.990000e+002
      vertex   2.765739e+001 6.497195e+001 2.119600e+002
    endloop
  endfacet
  facet normal -8.841190e-001 -4.672619e-001 -3.401713e-008
    outer loop
      vertex   2.754823e+001 6.517851e+001 2.467347e+002
      vertex   2.765739e+001 6.497195e+001 2.990000e+002
      vertex   2.743906e+001 6.538506e+001 2.990000e+002
    endloop
  endfacet
  facet normal 0.000000e+000 1.000000e+000 0.000000e+000
    outer loop
      vertex   3.821128e+001 6.697195e+001 2.478629e+002
      vertex   4.547897e+001 6.697195e+001 2.985000e+002
      vertex   4.547897e+001 6.697195e+001 2.912000e+002
    endloop
  endfacet
  facet normal -0.000000e+000 1.000000e+000 0.000000e+000
    outer loop
      vertex   3.821128e+001 6.697195e+001 2.478629e+002
      vertex   2.852103e+001 6.697195e+001 2.985000e+002
      vertex   4.547897e+001 6.697195e+001 2.985000e+002
    endloop
  endfacet
  facet normal -0.000000e+000 -1.000000e+000 0.000000e+000
    outer loop
      vertex   3.700000e+001 6.497195e+001 2.554800e+002
      vertex   4.634261e+001 6.497195e+001 2.990000e+002
      vertex   2.765739e+001 6.497195e+001 2.990000e+002
    endloop
  endfacet
  facet normal -8.262287e-001 5.633348e-001 -3.373984e-008
    outer loop
      vertex   2.802006e+001 6.623720e+001 2.640840e+002
      vertex   2.743906e+001 6.538506e+001 2.990000e+002
      vertex   2.818012e+001 6.647195e+001 2.990000e+002
    endloop
  endfacet
  facet normal -8.262267e-001 5.633377e-001 -6.269566e-008
    outer loop
      vertex   2.802006e+001 6.623720e+001 2.640840e+002
      vertex   2.818012e+001 6.647195e+001 2.990000e+002
      vertex   2.852103e+001 6.697195e+001 2.985000e+002
    endloop
  endfacet
  facet normal 0.000000e+000 -7.071772e-001 -7.070363e-001
    outer loop
      vertex   5.150000e+001 6.550000e+001 2.912000e+002
      vertex   4.656094e+001 6.538506e+001 2.913149e+002
      vertex   4.648257e+001 6.550000e+001 2.912000e+002
    endloop
  endfacet
  facet normal 0.000000e+000 0.000000e+000 -1.000000e+000
    outer loop
      vertex   4.808810e+001 6.639439e+001 2.912000e+002
      vertex   4.547897e+001 6.697195e+001 2.912000e+002
      vertex   4.547897e+001 6.700000e+001 2.912000e+002
    endloop
  endfacet
  facet normal -1.000000e+000 0.000000e+000 0.000000e+000
    outer loop
      vertex   4.547897e+001 6.700000e+001 2.985000e+002
      vertex   4.547897e+001 6.700000e+001 2.912000e+002
      vertex   4.547897e+001 6.697195e+001 2.985000e+002
    endloop
  endfacet
  facet normal 0.000000e+000 0.000000e+000 -1.000000e+000
    outer loop
      vertex   4.808810e+001 6.639439e+001 2.912000e+002
      vertex   4.648257e+001 6.550000e+001 2.912000e+002
      vertex   4.547897e+001 6.697195e+001 2.912000e+002
    endloop
  endfacet
  facet normal 0.000000e+000 0.000000e+000 -1.000000e+000
    outer loop
      vertex   4.808810e+001 6.639439e+001 2.912000e+002
      vertex   5.150000e+001 6.550000e+001 2.912000e+002
      vertex   4.648257e+001 6.550000e+001 2.912000e+002
    endloop
  endfacet
  facet normal 0.000000e+000 1.000000e+000 0.000000e+000
    outer loop
      vertex   5.110780e+001 6.700000e+001 2.943534e+002
      vertex   5.150000e+001 6.700000e+001 2.912000e+002
      vertex   5.086788e+001 6.700000e+001 2.937474e+002
    endloop
  endfacet
  facet normal 0.000000e+000 1.000000e+000 0.000000e+000
    outer loop
      vertex   5.150000e+001 6.700000e+001 2.912000e+002
      vertex   4.547897e+001 6.700000e+001 2.912000e+002
      vertex   4.939293e+001 6.700000e+001 2.925273e+002
    endloop
  endfacet
  facet normal -4.308020e-006 -7.070847e-001 -7.071289e-001
    outer loop
      vertex   5.150000e+001 6.550000e+001 2.912000e+002
      vertex   4.635743e+001 6.500000e+001 2.917000e+002
      vertex   4.656094e+001 6.538506e+001 2.913149e+002
    endloop
  endfacet
  facet normal 1.000000e+000 -0.000000e+000 0.000000e+000
    outer loop
      vertex   5.150000e+001 6.600000e+001 2.951000e+002
      vertex   5.150000e+001 6.500000e+001 2.917000e+002
      vertex   5.150000e+001 6.550000e+001 2.912000e+002
    endloop
  endfacet
  facet normal 1.000000e+000 0.000000e+000 0.000000e+000
    outer loop
      vertex   5.150000e+001 6.600000e+001 2.951000e+002
      vertex   5.150000e+001 6.550000e+001 2.912000e+002
      vertex   5.150000e+001 6.700000e+001 2.912000e+002
    endloop
  endfacet
  facet normal -0.000000e+000 1.000000e+000 0.000000e+000
    outer loop
      vertex   5.150000e+001 6.700000e+001 2.912000e+002
      vertex   4.939293e+001 6.700000e+001 2.925273e+002
      vertex   4.998264e+001 6.700000e+001 2.928047e+002
    endloop
  endfacet
  facet normal 0.000000e+000 1.000000e+000 0.000000e+000
    outer loop
      vertex   5.118948e+001 6.700000e+001 2.950000e+002
      vertex   5.150000e+001 6.700000e+001 2.912000e+002
      vertex   5.110780e+001 6.700000e+001 2.943534e+002
    endloop
  endfacet
  facet normal -0.000000e+000 1.000000e+000 0.000000e+000
    outer loop
      vertex   5.150000e+001 6.700000e+001 2.912000e+002
      vertex   4.998264e+001 6.700000e+001 2.928047e+002
      vertex   5.048480e+001 6.700000e+001 2.932202e+002
    endloop
  endfacet
  facet normal 0.000000e+000 1.000000e+000 0.000000e+000
    outer loop
      vertex   4.939293e+001 6.700000e+001 2.925273e+002
      vertex   4.547897e+001 6.700000e+001 2.912000e+002
      vertex   4.875274e+001 6.700000e+001 2.924051e+002
    endloop
  endfacet
  facet normal 0.000000e+000 1.000000e+000 0.000000e+000
    outer loop
      vertex   4.875274e+001 6.700000e+001 2.924051e+002
      vertex   4.547897e+001 6.700000e+001 2.912000e+002
      vertex   4.810229e+001 6.700000e+001 2.924460e+002
    endloop
  endfacet
  facet normal 0.000000e+000 1.000000e+000 0.000000e+000
    outer loop
      vertex   4.547897e+001 6.700000e+001 2.985000e+002
      vertex   4.600999e+001 6.700000e+001 2.953259e+002
      vertex   4.547897e+001 6.700000e+001 2.912000e+002
    endloop
  endfacet
  facet normal 0.000000e+000 1.000000e+000 0.000000e+000
    outer loop
      vertex   4.810229e+001 6.700000e+001 2.924460e+002
      vertex   4.547897e+001 6.700000e+001 2.912000e+002
      vertex   4.748246e+001 6.700000e+001 2.926475e+002
    endloop
  endfacet
  facet normal 0.000000e+000 1.000000e+000 0.000000e+000
    outer loop
      vertex   4.748246e+001 6.700000e+001 2.926475e+002
      vertex   4.547897e+001 6.700000e+001 2.912000e+002
      vertex   4.693218e+001 6.700000e+001 2.929967e+002
    endloop
  endfacet
  facet normal 0.000000e+000 1.000000e+000 -0.000000e+000
    outer loop
      vertex   4.600999e+001 6.700000e+001 2.953259e+002
      vertex   4.600999e+001 6.700000e+001 2.946741e+002
      vertex   4.547897e+001 6.700000e+001 2.912000e+002
    endloop
  endfacet
  facet normal 0.000000e+000 1.000000e+000 0.000000e+000
    outer loop
      vertex   4.693218e+001 6.700000e+001 2.929967e+002
      vertex   4.547897e+001 6.700000e+001 2.912000e+002
      vertex   4.648604e+001 6.700000e+001 2.934717e+002
    endloop
  endfacet
  facet normal 0.000000e+000 1.000000e+000 0.000000e+000
    outer loop
      vertex   4.600999e+001 6.700000e+001 2.946741e+002
      vertex   4.617207e+001 6.700000e+001 2.940429e+002
      vertex   4.547897e+001 6.700000e+001 2.912000e+002
    endloop
  endfacet
  facet normal 0.000000e+000 1.000000e+000 0.000000e+000
    outer loop
      vertex   4.648604e+001 6.700000e+001 2.934717e+002
      vertex   4.547897e+001 6.700000e+001 2.912000e+002
      vertex   4.617207e+001 6.700000e+001 2.940429e+002
    endloop
  endfacet
  facet normal 0.000000e+000 1.000000e+000 -0.000000e+000
    outer loop
      vertex   5.150000e+001 6.700000e+001 2.985000e+002
      vertex   5.150000e+001 6.700000e+001 2.912000e+002
      vertex   5.118948e+001 6.700000e+001 2.950000e+002
    endloop
  endfacet
  facet normal 1.000000e+000 0.000000e+000 -0.000000e+000
    outer loop
      vertex   5.150000e+001 6.600000e+001 2.951000e+002
      vertex   5.150000e+001 6.700000e+001 2.912000e+002
      vertex   5.150000e+001 6.700000e+001 2.985000e+002
    endloop
  endfacet
  facet normal 0.000000e+000 -0.000000e+000 -1.000000e+000
    outer loop
      vertex   4.808810e+001 6.639439e+001 2.912000e+002
      vertex   5.150000e+001 6.700000e+001 2.912000e+002
      vertex   5.150000e+001 6.550000e+001 2.912000e+002
    endloop
  endfacet
  facet normal 0.000000e+000 0.000000e+000 -1.000000e+000
    outer loop
      vertex   4.808810e+001 6.639439e+001 2.912000e+002
      vertex   4.547897e+001 6.700000e+001 2.912000e+002
      vertex   5.150000e+001 6.700000e+001 2.912000e+002
    endloop
  endfacet
  facet normal 0.000000e+000 1.000000e+000 0.000000e+000
    outer loop
      vertex   5.086788e+001 6.700000e+001 2.937474e+002
      vertex   5.150000e+001 6.700000e+001 2.912000e+002
      vertex   5.048480e+001 6.700000e+001 2.932202e+002
    endloop
  endfacet
  facet normal 0.000000e+000 -7.071068e-001 -7.071068e-001
    outer loop
      vertex   5.150000e+001 6.500000e+001 2.917000e+002
      vertex   4.635743e+001 6.500000e+001 2.917000e+002
      vertex   5.150000e+001 6.550000e+001 2.912000e+002
    endloop
  endfacet
  facet normal -1.000000e+000 0.000000e+000 0.000000e+000
    outer loop
      vertex   4.547897e+001 6.697195e+001 2.985000e+002
      vertex   4.547897e+001 6.700000e+001 2.912000e+002
      vertex   4.547897e+001 6.697195e+001 2.912000e+002
    endloop
  endfacet
  facet normal 1.000000e+000 0.000000e+000 0.000000e+000
    outer loop
      vertex   5.150000e+001 6.600000e+001 2.951000e+002
      vertex   5.150000e+001 6.500000e+001 2.990000e+002
      vertex   5.150000e+001 6.500000e+001 2.917000e+002
    endloop
  endfacet
  facet normal 0.000000e+000 -1.000000e+000 0.000000e+000
    outer loop
      vertex   4.650604e+001 6.500000e+001 2.952632e+002
      vertex   4.635743e+001 6.500000e+001 2.917000e+002
      vertex   4.650604e+001 6.500000e+001 2.947368e+002
    endloop
  endfacet
  facet normal 0.000000e+000 -1.000000e+000 0.000000e+000
    outer loop
      vertex   4.635743e+001 6.500000e+001 2.990000e+002
      vertex   4.635743e+001 6.500000e+001 2.917000e+002
      vertex   4.650604e+001 6.500000e+001 2.952632e+002
    endloop
  endfacet
  facet normal 0.000000e+000 -1.000000e+000 0.000000e+000
    outer loop
      vertex   5.062351e+001 6.500000e+001 2.955222e+002
      vertex   5.068948e+001 6.500000e+001 2.950000e+002
      vertex   5.150000e+001 6.500000e+001 2.917000e+002
    endloop
  endfacet
  facet normal 0.000000e+000 -1.000000e+000 0.000000e+000
    outer loop
      vertex   5.068948e+001 6.500000e+001 2.950000e+002
      vertex   5.062351e+001 6.500000e+001 2.944778e+002
      vertex   5.150000e+001 6.500000e+001 2.917000e+002
    endloop
  endfacet
  facet normal 0.000000e+000 -1.000000e+000 0.000000e+000
    outer loop
      vertex   5.062351e+001 6.500000e+001 2.944778e+002
      vertex   5.042973e+001 6.500000e+001 2.939883e+002
      vertex   5.150000e+001 6.500000e+001 2.917000e+002
    endloop
  endfacet
  facet normal 0.000000e+000 -1.000000e+000 0.000000e+000
    outer loop
      vertex   5.042973e+001 6.500000e+001 2.939883e+002
      vertex   5.012032e+001 6.500000e+001 2.935624e+002
      vertex   5.150000e+001 6.500000e+001 2.917000e+002
    endloop
  endfacet
  facet normal 0.000000e+000 -1.000000e+000 0.000000e+000
    outer loop
      vertex   5.012032e+001 6.500000e+001 2.935624e+002
      vertex   4.971472e+001 6.500000e+001 2.932269e+002
      vertex   5.150000e+001 6.500000e+001 2.917000e+002
    endloop
  endfacet
  facet normal 8.840978e-001 -4.673020e-001 0.000000e+000
    outer loop
      vertex   4.635743e+001 6.500000e+001 2.990000e+002
      vertex   4.634261e+001 6.497195e+001 2.990000e+002
      vertex   4.635743e+001 6.500000e+001 2.917000e+002
    endloop
  endfacet
  facet normal 0.000000e+000 -1.000000e+000 0.000000e+000
    outer loop
      vertex   4.971472e+001 6.500000e+001 2.932269e+002
      vertex   4.923842e+001 6.500000e+001 2.930028e+002
      vertex   5.150000e+001 6.500000e+001 2.917000e+002
    endloop
  endfacet
  facet normal 0.000000e+000 -1.000000e+000 0.000000e+000
    outer loop
      vertex   4.650604e+001 6.500000e+001 2.947368e+002
      vertex   4.635743e+001 6.500000e+001 2.917000e+002
      vertex   4.663696e+001 6.500000e+001 2.942269e+002
    endloop
  endfacet
  facet normal 0.000000e+000 -1.000000e+000 0.000000e+000
    outer loop
      vertex   4.923842e+001 6.500000e+001 2.930028e+002
      vertex   4.872134e+001 6.500000e+001 2.929041e+002
      vertex   5.150000e+001 6.500000e+001 2.917000e+002
    endloop
  endfacet
  facet normal 0.000000e+000 -1.000000e+000 0.000000e+000
    outer loop
      vertex   4.663696e+001 6.500000e+001 2.942269e+002
      vertex   4.635743e+001 6.500000e+001 2.917000e+002
      vertex   4.689055e+001 6.500000e+001 2.937657e+002
    endloop
  endfacet
  facet normal 0.000000e+000 -1.000000e+000 -0.000000e+000
    outer loop
      vertex   5.150000e+001 6.500000e+001 2.917000e+002
      vertex   4.872134e+001 6.500000e+001 2.929041e+002
      vertex   4.635743e+001 6.500000e+001 2.917000e+002
    endloop
  endfacet
  facet normal 0.000000e+000 -1.000000e+000 -0.000000e+000
    outer loop
      vertex   4.872134e+001 6.500000e+001 2.929041e+002
      vertex   4.819598e+001 6.500000e+001 2.929372e+002
      vertex   4.635743e+001 6.500000e+001 2.917000e+002
    endloop
  endfacet
  facet normal 0.000000e+000 -1.000000e+000 0.000000e+000
    outer loop
      vertex   4.689055e+001 6.500000e+001 2.937657e+002
      vertex   4.635743e+001 6.500000e+001 2.917000e+002
      vertex   4.725089e+001 6.500000e+001 2.933819e+002
    endloop
  endfacet
  facet normal 0.000000e+000 -1.000000e+000 -0.000000e+000
    outer loop
      vertex   4.819598e+001 6.500000e+001 2.929372e+002
      vertex   4.769535e+001 6.500000e+001 2.930999e+002
      vertex   4.635743e+001 6.500000e+001 2.917000e+002
    endloop
  endfacet
  facet normal 0.000000e+000 -1.000000e+000 0.000000e+000
    outer loop
      vertex   4.725089e+001 6.500000e+001 2.933819e+002
      vertex   4.635743e+001 6.500000e+001 2.917000e+002
      vertex   4.769535e+001 6.500000e+001 2.930999e+002
    endloop
  endfacet
  facet normal 0.000000e+000 -1.000000e+000 0.000000e+000
    outer loop
      vertex   5.150000e+001 6.500000e+001 2.990000e+002
      vertex   5.062351e+001 6.500000e+001 2.955222e+002
      vertex   5.150000e+001 6.500000e+001 2.917000e+002
    endloop
  endfacet
  facet normal -1.329864e-001 7.043116e-001 6.973233e-001
    outer loop
      vertex   4.902636e+001 6.675000e+001 2.927098e+002
      vertex   4.875274e+001 6.700000e+001 2.924051e+002
      vertex   4.872134e+001 6.650000e+001 2.929041e+002
    endloop
  endfacet
  facet normal -1.330346e-001 7.042829e-001 6.973431e-001
    outer loop
      vertex   4.902636e+001 6.675000e+001 2.927098e+002
      vertex   4.939293e+001 6.700000e+001 2.925273e+002
      vertex   4.875274e+001 6.700000e+001 2.924051e+002
    endloop
  endfacet
  facet normal 4.457638e-002 7.043080e-001 7.084936e-001
    outer loop
      vertex   4.844309e+001 6.675000e+001 2.926731e+002
      vertex   4.875274e+001 6.700000e+001 2.924051e+002
      vertex   4.810229e+001 6.700000e+001 2.924460e+002
    endloop
  endfacet
  facet normal 4.457383e-002 7.043096e-001 7.084922e-001
    outer loop
      vertex   4.844309e+001 6.675000e+001 2.926731e+002
      vertex   4.872134e+001 6.650000e+001 2.929041e+002
      vertex   4.875274e+001 6.700000e+001 2.924051e+002
    endloop
  endfacet
  facet normal 2.193403e-001 7.043082e-001 6.751591e-001
    outer loop
      vertex   4.786902e+001 6.675000e+001 2.927826e+002
      vertex   4.819598e+001 6.650000e+001 2.929372e+002
      vertex   4.810229e+001 6.700000e+001 2.924460e+002
    endloop
  endfacet
  facet normal 4.457458e-002 7.043067e-001 7.084950e-001
    outer loop
      vertex   4.844309e+001 6.675000e+001 2.926731e+002
      vertex   4.810229e+001 6.700000e+001 2.924460e+002
      vertex   4.819598e+001 6.650000e+001 2.929372e+002
    endloop
  endfacet
  facet normal 2.193988e-001 7.042748e-001 6.751749e-001
    outer loop
      vertex   4.786902e+001 6.675000e+001 2.927826e+002
      vertex   4.810229e+001 6.700000e+001 2.924460e+002
      vertex   4.748246e+001 6.700000e+001 2.926475e+002
    endloop
  endfacet
  facet normal -3.022416e-001 7.043022e-001 6.423461e-001
    outer loop
      vertex   4.958218e+001 6.675000e+001 2.928904e+002
      vertex   4.939293e+001 6.700000e+001 2.925273e+002
      vertex   4.923842e+001 6.650000e+001 2.930028e+002
    endloop
  endfacet
  facet normal -1.330607e-001 7.043027e-001 6.973181e-001
    outer loop
      vertex   4.902636e+001 6.675000e+001 2.927098e+002
      vertex   4.923842e+001 6.650000e+001 2.930028e+002
      vertex   4.939293e+001 6.700000e+001 2.925273e+002
    endloop
  endfacet
  facet normal -3.022686e-001 7.042871e-001 6.423498e-001
    outer loop
      vertex   4.958218e+001 6.675000e+001 2.928904e+002
      vertex   4.998264e+001 6.700000e+001 2.928047e+002
      vertex   4.939293e+001 6.700000e+001 2.925273e+002
    endloop
  endfacet
  facet normal 3.803939e-001 7.042766e-001 5.994121e-001
    outer loop
      vertex   4.734022e+001 6.675000e+001 2.930315e+002
      vertex   4.748246e+001 6.700000e+001 2.926475e+002
      vertex   4.693218e+001 6.700000e+001 2.929967e+002
    endloop
  endfacet
  facet normal 2.194164e-001 7.042902e-001 6.751531e-001
    outer loop
      vertex   4.786902e+001 6.675000e+001 2.927826e+002
      vertex   4.748246e+001 6.700000e+001 2.926475e+002
      vertex   4.769535e+001 6.650000e+001 2.930999e+002
    endloop
  endfacet
  facet normal 3.803694e-001 7.042902e-001 5.994118e-001
    outer loop
      vertex   4.734022e+001 6.675000e+001 2.930315e+002
      vertex   4.769535e+001 6.650000e+001 2.930999e+002
      vertex   4.748246e+001 6.700000e+001 2.926475e+002
    endloop
  endfacet
  facet normal 4.457151e-002 7.043084e-001 7.084936e-001
    outer loop
      vertex   4.844309e+001 6.675000e+001 2.926731e+002
      vertex   4.819598e+001 6.650000e+001 2.929372e+002
      vertex   4.872134e+001 6.650000e+001 2.929041e+002
    endloop
  endfacet
  facet normal -1.330117e-001 7.043267e-001 6.973031e-001
    outer loop
      vertex   4.902636e+001 6.675000e+001 2.927098e+002
      vertex   4.872134e+001 6.650000e+001 2.929041e+002
      vertex   4.923842e+001 6.650000e+001 2.930028e+002
    endloop
  endfacet
  facet normal 2.193562e-001 7.043189e-001 6.751428e-001
    outer loop
      vertex   4.786902e+001 6.675000e+001 2.927826e+002
      vertex   4.769535e+001 6.650000e+001 2.930999e+002
      vertex   4.819598e+001 6.650000e+001 2.929372e+002
    endloop
  endfacet
  facet normal -4.525069e-001 7.043107e-001 5.469772e-001
    outer loop
      vertex   5.007562e+001 6.675000e+001 2.932036e+002
      vertex   5.048480e+001 6.700000e+001 2.932202e+002
      vertex   4.998264e+001 6.700000e+001 2.928047e+002
    endloop
  endfacet
  facet normal -3.022751e-001 7.042940e-001 6.423392e-001
    outer loop
      vertex   4.958218e+001 6.675000e+001 2.928904e+002
      vertex   4.971472e+001 6.650000e+001 2.932269e+002
      vertex   4.998264e+001 6.700000e+001 2.928047e+002
    endloop
  endfacet
  facet normal -4.525396e-001 7.042925e-001 5.469734e-001
    outer loop
      vertex   5.007562e+001 6.675000e+001 2.932036e+002
      vertex   4.998264e+001 6.700000e+001 2.928047e+002
      vertex   4.971472e+001 6.650000e+001 2.932269e+002
    endloop
  endfacet
  facet normal -3.022476e-001 7.043069e-001 6.423380e-001
    outer loop
      vertex   4.958218e+001 6.675000e+001 2.928904e+002
      vertex   4.923842e+001 6.650000e+001 2.930028e+002
      vertex   4.971472e+001 6.650000e+001 2.932269e+002
    endloop
  endfacet
  facet normal 6.278613e-002 -2.030373e-005 9.980270e-001
    outer loop
      vertex   4.845866e+001 6.575000e+001 2.929207e+002
      vertex   4.872134e+001 6.650000e+001 2.929041e+002
      vertex   4.819598e+001 6.650000e+001 2.929372e+002
    endloop
  endfacet
  facet normal -1.873732e-001 0.000000e+000 9.822888e-001
    outer loop
      vertex   4.897988e+001 6.575000e+001 2.929535e+002
      vertex   4.872134e+001 6.500000e+001 2.929041e+002
      vertex   4.923842e+001 6.500000e+001 2.930028e+002
    endloop
  endfacet
  facet normal -1.873732e-001 0.000000e+000 9.822888e-001
    outer loop
      vertex   4.897988e+001 6.575000e+001 2.929535e+002
      vertex   4.872134e+001 6.650000e+001 2.929041e+002
      vertex   4.872134e+001 6.500000e+001 2.929041e+002
    endloop
  endfacet
  facet normal 6.278613e-002 2.030609e-005 9.980270e-001
    outer loop
      vertex   4.845866e+001 6.575000e+001 2.929207e+002
      vertex   4.819598e+001 6.500000e+001 2.929372e+002
      vertex   4.872134e+001 6.500000e+001 2.929041e+002
    endloop
  endfacet
  facet normal 6.272838e-002 -0.000000e+000 9.980306e-001
    outer loop
      vertex   4.845866e+001 6.575000e+001 2.929207e+002
      vertex   4.872134e+001 6.500000e+001 2.929041e+002
      vertex   4.872134e+001 6.650000e+001 2.929041e+002
    endloop
  endfacet
  facet normal -1.873732e-001 0.000000e+000 9.822888e-001
    outer loop
      vertex   4.897988e+001 6.575000e+001 2.929535e+002
      vertex   4.923842e+001 6.650000e+001 2.930028e+002
      vertex   4.872134e+001 6.650000e+001 2.929041e+002
    endloop
  endfacet
  facet normal 6.284387e-002 0.000000e+000 9.980233e-001
    outer loop
      vertex   4.845866e+001 6.575000e+001 2.929207e+002
      vertex   4.819598e+001 6.650000e+001 2.929372e+002
      vertex   4.819598e+001 6.500000e+001 2.929372e+002
    endloop
  endfacet
  facet normal 3.090030e-001 -7.831814e-007 9.510611e-001
    outer loop
      vertex   4.794566e+001 6.575000e+001 2.930185e+002
      vertex   4.819598e+001 6.650000e+001 2.929372e+002
      vertex   4.769535e+001 6.650000e+001 2.930999e+002
    endloop
  endfacet
  facet normal 3.090008e-001 -0.000000e+000 9.510617e-001
    outer loop
      vertex   4.794566e+001 6.575000e+001 2.930185e+002
      vertex   4.819598e+001 6.500000e+001 2.929372e+002
      vertex   4.819598e+001 6.650000e+001 2.929372e+002
    endloop
  endfacet
  facet normal 3.090030e-001 7.831814e-007 9.510611e-001
    outer loop
      vertex   4.794566e+001 6.575000e+001 2.930185e+002
      vertex   4.769535e+001 6.500000e+001 2.930999e+002
      vertex   4.819598e+001 6.500000e+001 2.929372e+002
    endloop
  endfacet
  facet normal -1.873732e-001 0.000000e+000 9.822888e-001
    outer loop
      vertex   4.897988e+001 6.575000e+001 2.929535e+002
      vertex   4.923842e+001 6.500000e+001 2.930028e+002
      vertex   4.923842e+001 6.650000e+001 2.930028e+002
    endloop
  endfacet
  facet normal 5.174791e-001 7.043017e-001 4.859780e-001
    outer loop
      vertex   4.688992e+001 6.675000e+001 2.934040e+002
      vertex   4.725089e+001 6.650000e+001 2.933819e+002
      vertex   4.693218e+001 6.700000e+001 2.929967e+002
    endloop
  endfacet
  facet normal 3.804132e-001 7.043023e-001 5.993697e-001
    outer loop
      vertex   4.734022e+001 6.675000e+001 2.930315e+002
      vertex   4.693218e+001 6.700000e+001 2.929967e+002
      vertex   4.725089e+001 6.650000e+001 2.933819e+002
    endloop
  endfacet
  facet normal 5.174825e-001 7.042998e-001 4.859771e-001
    outer loop
      vertex   4.688992e+001 6.675000e+001 2.934040e+002
      vertex   4.693218e+001 6.700000e+001 2.929967e+002
      vertex   4.648604e+001 6.700000e+001 2.934717e+002
    endloop
  endfacet
  facet normal -4.257635e-001 0.000000e+000 9.048344e-001
    outer loop
      vertex   4.947657e+001 6.575000e+001 2.931148e+002
      vertex   4.971472e+001 6.650000e+001 2.932269e+002
      vertex   4.923842e+001 6.650000e+001 2.930028e+002
    endloop
  endfacet
  facet normal -4.257635e-001 0.000000e+000 9.048344e-001
    outer loop
      vertex   4.947657e+001 6.575000e+001 2.931148e+002
      vertex   4.923842e+001 6.650000e+001 2.930028e+002
      vertex   4.923842e+001 6.500000e+001 2.930028e+002
    endloop
  endfacet
  facet normal -4.257635e-001 0.000000e+000 9.048344e-001
    outer loop
      vertex   4.947657e+001 6.575000e+001 2.931148e+002
      vertex   4.923842e+001 6.500000e+001 2.930028e+002
      vertex   4.971472e+001 6.500000e+001 2.932269e+002
    endloop
  endfacet
  facet normal 3.090051e-001 0.000000e+000 9.510604e-001
    outer loop
      vertex   4.794566e+001 6.575000e+001 2.930185e+002
      vertex   4.769535e+001 6.650000e+001 2.930999e+002
      vertex   4.769535e+001 6.500000e+001 2.930999e+002
    endloop
  endfacet
  facet normal 3.803926e-001 7.043121e-001 5.993714e-001
    outer loop
      vertex   4.734022e+001 6.675000e+001 2.930315e+002
      vertex   4.725089e+001 6.650000e+001 2.933819e+002
      vertex   4.769535e+001 6.650000e+001 2.930999e+002
    endloop
  endfacet
  facet normal 5.358468e-001 -1.581432e-005 8.443152e-001
    outer loop
      vertex   4.747312e+001 6.575000e+001 2.932409e+002
      vertex   4.769535e+001 6.650000e+001 2.930999e+002
      vertex   4.725089e+001 6.650000e+001 2.933819e+002
    endloop
  endfacet
  facet normal 5.358087e-001 -0.000000e+000 8.443394e-001
    outer loop
      vertex   4.747312e+001 6.575000e+001 2.932409e+002
      vertex   4.769535e+001 6.500000e+001 2.930999e+002
      vertex   4.769535e+001 6.650000e+001 2.930999e+002
    endloop
  endfacet
  facet normal 5.358468e-001 1.581432e-005 8.443152e-001
    outer loop
      vertex   4.747312e+001 6.575000e+001 2.932409e+002
      vertex   4.725089e+001 6.500000e+001 2.933819e+002
      vertex   4.769535e+001 6.500000e+001 2.930999e+002
    endloop
  endfacet
  facet normal -4.257635e-001 0.000000e+000 9.048344e-001
    outer loop
      vertex   4.947657e+001 6.575000e+001 2.931148e+002
      vertex   4.971472e+001 6.500000e+001 2.932269e+002
      vertex   4.971472e+001 6.650000e+001 2.932269e+002
    endloop
  endfacet
  facet normal -4.525254e-001 7.042753e-001 5.470074e-001
    outer loop
      vertex   5.007562e+001 6.675000e+001 2.932036e+002
      vertex   4.971472e+001 6.650000e+001 2.932269e+002
      vertex   5.012032e+001 6.650000e+001 2.935624e+002
    endloop
  endfacet
  facet normal -4.524955e-001 7.042896e-001 5.470136e-001
    outer loop
      vertex   5.007562e+001 6.675000e+001 2.932036e+002
      vertex   5.012032e+001 6.650000e+001 2.935624e+002
      vertex   5.048480e+001 6.700000e+001 2.932202e+002
    endloop
  endfacet
  facet normal -5.743433e-001 7.042921e-001 4.172558e-001
    outer loop
      vertex   5.047568e+001 6.675000e+001 2.936296e+002
      vertex   5.048480e+001 6.700000e+001 2.932202e+002
      vertex   5.012032e+001 6.650000e+001 2.935624e+002
    endloop
  endfacet
  facet normal -5.743089e-001 7.043124e-001 4.172690e-001
    outer loop
      vertex   5.047568e+001 6.675000e+001 2.936296e+002
      vertex   5.086788e+001 6.700000e+001 2.937474e+002
      vertex   5.048480e+001 6.700000e+001 2.932202e+002
    endloop
  endfacet
  facet normal -6.374633e-001 0.000000e+000 7.704807e-001
    outer loop
      vertex   4.991752e+001 6.575000e+001 2.933947e+002
      vertex   4.971472e+001 6.650000e+001 2.932269e+002
      vertex   4.971472e+001 6.500000e+001 2.932269e+002
    endloop
  endfacet
  facet normal -6.374253e-001 1.728655e-005 7.705122e-001
    outer loop
      vertex   4.991752e+001 6.575000e+001 2.933947e+002
      vertex   5.012032e+001 6.650000e+001 2.935624e+002
      vertex   4.971472e+001 6.650000e+001 2.932269e+002
    endloop
  endfacet
  facet normal -6.374253e-001 -1.730542e-005 7.705122e-001
    outer loop
      vertex   4.991752e+001 6.575000e+001 2.933947e+002
      vertex   4.971472e+001 6.500000e+001 2.932269e+002
      vertex   5.012032e+001 6.500000e+001 2.935624e+002
    endloop
  endfacet
  facet normal 5.358848e-001 0.000000e+000 8.442911e-001
    outer loop
      vertex   4.747312e+001 6.575000e+001 2.932409e+002
      vertex   4.725089e+001 6.650000e+001 2.933819e+002
      vertex   4.725089e+001 6.500000e+001 2.933819e+002
    endloop
  endfacet
  facet normal 5.174865e-001 7.043147e-001 4.859512e-001
    outer loop
      vertex   4.688992e+001 6.675000e+001 2.934040e+002
      vertex   4.689055e+001 6.650000e+001 2.937657e+002
      vertex   4.725089e+001 6.650000e+001 2.933819e+002
    endloop
  endfacet
  facet normal 7.289692e-001 0.000000e+000 6.845464e-001
    outer loop
      vertex   4.707072e+001 6.575000e+001 2.935738e+002
      vertex   4.725089e+001 6.650000e+001 2.933819e+002
      vertex   4.689055e+001 6.650000e+001 2.937657e+002
    endloop
  endfacet
  facet normal 7.289692e-001 -0.000000e+000 6.845464e-001
    outer loop
      vertex   4.707072e+001 6.575000e+001 2.935738e+002
      vertex   4.725089e+001 6.500000e+001 2.933819e+002
      vertex   4.725089e+001 6.650000e+001 2.933819e+002
    endloop
  endfacet
  facet normal 7.289692e-001 0.000000e+000 6.845464e-001
    outer loop
      vertex   4.707072e+001 6.575000e+001 2.935738e+002
      vertex   4.689055e+001 6.500000e+001 2.937657e+002
      vertex   4.725089e+001 6.500000e+001 2.933819e+002
    endloop
  endfacet
  facet normal -6.373873e-001 0.000000e+000 7.705435e-001
    outer loop
      vertex   4.991752e+001 6.575000e+001 2.933947e+002
      vertex   5.012032e+001 6.500000e+001 2.935624e+002
      vertex   5.012032e+001 6.650000e+001 2.935624e+002
    endloop
  endfacet
  facet normal 5.174871e-001 7.043143e-001 4.859509e-001
    outer loop
      vertex   4.688992e+001 6.675000e+001 2.934040e+002
      vertex   4.648604e+001 6.700000e+001 2.934717e+002
      vertex   4.689055e+001 6.650000e+001 2.937657e+002
    endloop
  endfacet
  facet normal 6.220843e-001 7.043110e-001 3.419900e-001
    outer loop
      vertex   4.654640e+001 6.675000e+001 2.938768e+002
      vertex   4.689055e+001 6.650000e+001 2.937657e+002
      vertex   4.648604e+001 6.700000e+001 2.934717e+002
    endloop
  endfacet
  facet normal 6.220934e-001 7.043054e-001 3.419852e-001
    outer loop
      vertex   4.654640e+001 6.675000e+001 2.938768e+002
      vertex   4.648604e+001 6.700000e+001 2.934717e+002
      vertex   4.617207e+001 6.700000e+001 2.940429e+002
    endloop
  endfacet
  facet normal -5.743410e-001 7.042844e-001 4.172718e-001
    outer loop
      vertex   5.047568e+001 6.675000e+001 2.936296e+002
      vertex   5.012032e+001 6.650000e+001 2.935624e+002
      vertex   5.042973e+001 6.650000e+001 2.939883e+002
    endloop
  endfacet
  facet normal -8.090246e-001 -9.907634e-006 5.877748e-001
    outer loop
      vertex   5.027502e+001 6.575000e+001 2.937754e+002
      vertex   5.012032e+001 6.500000e+001 2.935624e+002
      vertex   5.042973e+001 6.500000e+001 2.939883e+002
    endloop
  endfacet
  facet normal -8.090411e-001 0.000000e+000 5.877519e-001
    outer loop
      vertex   5.027502e+001 6.575000e+001 2.937754e+002
      vertex   5.012032e+001 6.650000e+001 2.935624e+002
      vertex   5.012032e+001 6.500000e+001 2.935624e+002
    endloop
  endfacet
  facet normal -8.090246e-001 9.907634e-006 5.877748e-001
    outer loop
      vertex   5.027502e+001 6.575000e+001 2.937754e+002
      vertex   5.042973e+001 6.650000e+001 2.939883e+002
      vertex   5.012032e+001 6.650000e+001 2.935624e+002
    endloop
  endfacet
  facet normal 7.289692e-001 0.000000e+000 6.845464e-001
    outer loop
      vertex   4.707072e+001 6.575000e+001 2.935738e+002
      vertex   4.689055e+001 6.650000e+001 2.937657e+002
      vertex   4.689055e+001 6.500000e+001 2.937657e+002
    endloop
  endfacet
  facet normal -5.743079e-001 7.043018e-001 4.172881e-001
    outer loop
      vertex   5.047568e+001 6.675000e+001 2.936296e+002
      vertex   5.042973e+001 6.650000e+001 2.939883e+002
      vertex   5.086788e+001 6.700000e+001 2.937474e+002
    endloop
  endfacet
  facet normal -6.600466e-001 7.043039e-001 2.613321e-001
    outer loop
      vertex   5.075723e+001 6.675000e+001 2.941417e+002
      vertex   5.086788e+001 6.700000e+001 2.937474e+002
      vertex   5.042973e+001 6.650000e+001 2.939883e+002
    endloop
  endfacet
  facet normal -6.600453e-001 7.043048e-001 2.613330e-001
    outer loop
      vertex   5.075723e+001 6.675000e+001 2.941417e+002
      vertex   5.110780e+001 6.700000e+001 2.943534e+002
      vertex   5.086788e+001 6.700000e+001 2.937474e+002
    endloop
  endfacet
  facet normal 8.763015e-001 9.804146e-006 4.817629e-001
    outer loop
      vertex   4.676375e+001 6.575000e+001 2.939963e+002
      vertex   4.663696e+001 6.500000e+001 2.942269e+002
      vertex   4.689055e+001 6.500000e+001 2.937657e+002
    endloop
  endfacet
  facet normal 8.762881e-001 -0.000000e+000 4.817874e-001
    outer loop
      vertex   4.676375e+001 6.575000e+001 2.939963e+002
      vertex   4.689055e+001 6.500000e+001 2.937657e+002
      vertex   4.689055e+001 6.650000e+001 2.937657e+002
    endloop
  endfacet
  facet normal 8.763015e-001 -9.804146e-006 4.817629e-001
    outer loop
      vertex   4.676375e+001 6.575000e+001 2.939963e+002
      vertex   4.689055e+001 6.650000e+001 2.937657e+002
      vertex   4.663696e+001 6.650000e+001 2.942269e+002
    endloop
  endfacet
  facet normal 6.220840e-001 7.043054e-001 3.420022e-001
    outer loop
      vertex   4.654640e+001 6.675000e+001 2.938768e+002
      vertex   4.663696e+001 6.650000e+001 2.942269e+002
      vertex   4.689055e+001 6.650000e+001 2.937657e+002
    endloop
  endfacet
  facet normal -8.090080e-001 0.000000e+000 5.877976e-001
    outer loop
      vertex   5.027502e+001 6.575000e+001 2.937754e+002
      vertex   5.042973e+001 6.500000e+001 2.939883e+002
      vertex   5.042973e+001 6.650000e+001 2.939883e+002
    endloop
  endfacet
  facet normal 6.220941e-001 7.042996e-001 3.419954e-001
    outer loop
      vertex   4.654640e+001 6.675000e+001 2.938768e+002
      vertex   4.617207e+001 6.700000e+001 2.940429e+002
      vertex   4.663696e+001 6.650000e+001 2.942269e+002
    endloop
  endfacet
  facet normal -9.297768e-001 2.358942e-006 3.681236e-001
    outer loop
      vertex   5.052662e+001 6.575000e+001 2.942330e+002
      vertex   5.042973e+001 6.500000e+001 2.939883e+002
      vertex   5.062351e+001 6.500000e+001 2.944778e+002
    endloop
  endfacet
  facet normal -9.297768e-001 -2.368378e-006 3.681236e-001
    outer loop
      vertex   5.052662e+001 6.575000e+001 2.942330e+002
      vertex   5.062351e+001 6.650000e+001 2.944778e+002
      vertex   5.042973e+001 6.650000e+001 2.939883e+002
    endloop
  endfacet
  facet normal -9.297743e-001 0.000000e+000 3.681299e-001
    outer loop
      vertex   5.052662e+001 6.575000e+001 2.942330e+002
      vertex   5.042973e+001 6.650000e+001 2.939883e+002
      vertex   5.042973e+001 6.500000e+001 2.939883e+002
    endloop
  endfacet
  facet normal -6.600464e-001 7.043048e-001 2.613301e-001
    outer loop
      vertex   5.075723e+001 6.675000e+001 2.941417e+002
      vertex   5.042973e+001 6.650000e+001 2.939883e+002
      vertex   5.062351e+001 6.650000e+001 2.944778e+002
    endloop
  endfacet
  facet normal 8.763151e-001 0.000000e+000 4.817385e-001
    outer loop
      vertex   4.676375e+001 6.575000e+001 2.939963e+002
      vertex   4.663696e+001 6.650000e+001 2.942269e+002
      vertex   4.663696e+001 6.500000e+001 2.942269e+002
    endloop
  endfacet
  facet normal 6.875969e-001 7.043028e-001 1.765447e-001
    outer loop
      vertex   4.633126e+001 6.675000e+001 2.944202e+002
      vertex   4.617207e+001 6.700000e+001 2.940429e+002
      vertex   4.600999e+001 6.700000e+001 2.946741e+002
    endloop
  endfacet
  facet normal 6.875991e-001 7.043012e-001 1.765427e-001
    outer loop
      vertex   4.633126e+001 6.675000e+001 2.944202e+002
      vertex   4.663696e+001 6.650000e+001 2.942269e+002
      vertex   4.617207e+001 6.700000e+001 2.940429e+002
    endloop
  endfacet
  facet normal -6.600450e-001 7.043056e-001 2.613314e-001
    outer loop
      vertex   5.075723e+001 6.675000e+001 2.941417e+002
      vertex   5.062351e+001 6.650000e+001 2.944778e+002
      vertex   5.110780e+001 6.700000e+001 2.943534e+002
    endloop
  endfacet
  facet normal 9.685851e-001 -0.000000e+000 2.486825e-001
    outer loop
      vertex   4.657150e+001 6.575000e+001 2.944819e+002
      vertex   4.663696e+001 6.500000e+001 2.942269e+002
      vertex   4.663696e+001 6.650000e+001 2.942269e+002
    endloop
  endfacet
  facet normal 9.685815e-001 -5.067115e-006 2.486965e-001
    outer loop
      vertex   4.657150e+001 6.575000e+001 2.944819e+002
      vertex   4.650604e+001 6.500000e+001 2.947368e+002
      vertex   4.663696e+001 6.500000e+001 2.942269e+002
    endloop
  endfacet
  facet normal 9.685815e-001 5.057679e-006 2.486965e-001
    outer loop
      vertex   4.657150e+001 6.575000e+001 2.944819e+002
      vertex   4.663696e+001 6.650000e+001 2.942269e+002
      vertex   4.650604e+001 6.650000e+001 2.947368e+002
    endloop
  endfacet
  facet normal 6.876010e-001 7.042972e-001 1.765509e-001
    outer loop
      vertex   4.633126e+001 6.675000e+001 2.944202e+002
      vertex   4.650604e+001 6.650000e+001 2.947368e+002
      vertex   4.663696e+001 6.650000e+001 2.942269e+002
    endloop
  endfacet
  facet normal -9.297794e-001 0.000000e+000 3.681174e-001
    outer loop
      vertex   5.052662e+001 6.575000e+001 2.942330e+002
      vertex   5.062351e+001 6.500000e+001 2.944778e+002
      vertex   5.062351e+001 6.650000e+001 2.944778e+002
    endloop
  endfacet
  facet normal -7.043020e-001 7.043030e-001 8.897095e-002
    outer loop
      vertex   5.090257e+001 6.675000e+001 2.947078e+002
      vertex   5.110780e+001 6.700000e+001 2.943534e+002
      vertex   5.062351e+001 6.650000e+001 2.944778e+002
    endloop
  endfacet
  facet normal -7.043007e-001 7.043042e-001 8.897248e-002
    outer loop
      vertex   5.090257e+001 6.675000e+001 2.947078e+002
      vertex   5.118948e+001 6.700000e+001 2.950000e+002
      vertex   5.110780e+001 6.700000e+001 2.943534e+002
    endloop
  endfacet
  facet normal 6.875996e-001 7.042982e-001 1.765525e-001
    outer loop
      vertex   4.633126e+001 6.675000e+001 2.944202e+002
      vertex   4.600999e+001 6.700000e+001 2.946741e+002
      vertex   4.650604e+001 6.650000e+001 2.947368e+002
    endloop
  endfacet
  facet normal -9.921147e-001 0.000000e+000 1.253333e-001
    outer loop
      vertex   5.065649e+001 6.575000e+001 2.947389e+002
      vertex   5.062351e+001 6.650000e+001 2.944778e+002
      vertex   5.062351e+001 6.500000e+001 2.944778e+002
    endloop
  endfacet
  facet normal -7.043032e-001 7.043015e-001 8.897420e-002
    outer loop
      vertex   5.090257e+001 6.675000e+001 2.947078e+002
      vertex   5.062351e+001 6.650000e+001 2.944778e+002
      vertex   5.068948e+001 6.650000e+001 2.950000e+002
    endloop
  endfacet
  facet normal -9.921147e-001 -2.830778e-008 1.253333e-001
    outer loop
      vertex   5.065649e+001 6.575000e+001 2.947389e+002
      vertex   5.068948e+001 6.650000e+001 2.950000e+002
      vertex   5.062351e+001 6.650000e+001 2.944778e+002
    endloop
  endfacet
  facet normal -9.921147e-001 2.830778e-008 1.253333e-001
    outer loop
      vertex   5.065649e+001 6.575000e+001 2.947389e+002
      vertex   5.062351e+001 6.500000e+001 2.944778e+002
      vertex   5.068948e+001 6.500000e+001 2.950000e+002
    endloop
  endfacet
  facet normal 9.685779e-001 0.000000e+000 2.487105e-001
    outer loop
      vertex   4.657150e+001 6.575000e+001 2.944819e+002
      vertex   4.650604e+001 6.650000e+001 2.947368e+002
      vertex   4.650604e+001 6.500000e+001 2.947368e+002
    endloop
  endfacet
  facet normal 7.099013e-001 7.043011e-001 0.000000e+000
    outer loop
      vertex   4.625801e+001 6.675000e+001 2.950000e+002
      vertex   4.650604e+001 6.650000e+001 2.947368e+002
      vertex   4.600999e+001 6.700000e+001 2.946741e+002
    endloop
  endfacet
  facet normal 7.099013e-001 7.043011e-001 -0.000000e+000
    outer loop
      vertex   4.625801e+001 6.675000e+001 2.950000e+002
      vertex   4.600999e+001 6.700000e+001 2.946741e+002
      vertex   4.600999e+001 6.700000e+001 2.953259e+002
    endloop
  endfacet
  facet normal -7.043023e-001 7.043023e-001 8.897562e-002
    outer loop
      vertex   5.090257e+001 6.675000e+001 2.947078e+002
      vertex   5.068948e+001 6.650000e+001 2.950000e+002
      vertex   5.118948e+001 6.700000e+001 2.950000e+002
    endloop
  endfacet
  facet normal 1.000000e+000 0.000000e+000 0.000000e+000
    outer loop
      vertex   4.650604e+001 6.575000e+001 2.950000e+002
      vertex   4.650604e+001 6.500000e+001 2.947368e+002
      vertex   4.650604e+001 6.650000e+001 2.947368e+002
    endloop
  endfacet
  facet normal 1.000000e+000 0.000000e+000 0.000000e+000
    outer loop
      vertex   4.650604e+001 6.575000e+001 2.950000e+002
      vertex   4.650604e+001 6.500000e+001 2.952632e+002
      vertex   4.650604e+001 6.500000e+001 2.947368e+002
    endloop
  endfacet
  facet normal 7.099014e-001 7.043011e-001 0.000000e+000
    outer loop
      vertex   4.625801e+001 6.675000e+001 2.950000e+002
      vertex   4.650604e+001 6.650000e+001 2.952632e+002
      vertex   4.650604e+001 6.650000e+001 2.947368e+002
    endloop
  endfacet
  facet normal 1.000000e+000 0.000000e+000 -0.000000e+000
    outer loop
      vertex   4.650604e+001 6.575000e+001 2.950000e+002
      vertex   4.650604e+001 6.650000e+001 2.947368e+002
      vertex   4.650604e+001 6.650000e+001 2.952632e+002
    endloop
  endfacet
  facet normal -9.921147e-001 0.000000e+000 1.253332e-001
    outer loop
      vertex   5.065649e+001 6.575000e+001 2.947389e+002
      vertex   5.068948e+001 6.500000e+001 2.950000e+002
      vertex   5.068948e+001 6.650000e+001 2.950000e+002
    endloop
  endfacet
  facet normal -7.043028e-001 7.043014e-001 -8.897695e-002
    outer loop
      vertex   5.090257e+001 6.675000e+001 2.952922e+002
      vertex   5.110780e+001 6.700000e+001 2.956466e+002
      vertex   5.118948e+001 6.700000e+001 2.950000e+002
    endloop
  endfacet
  facet normal 0.000000e+000 1.000000e+000 -0.000000e+000
    outer loop
      vertex   5.150000e+001 6.700000e+001 2.985000e+002
      vertex   5.118948e+001 6.700000e+001 2.950000e+002
      vertex   5.110780e+001 6.700000e+001 2.956466e+002
    endloop
  endfacet
  facet normal -7.043023e-001 7.043023e-001 -8.897562e-002
    outer loop
      vertex   5.090257e+001 6.675000e+001 2.952922e+002
      vertex   5.118948e+001 6.700000e+001 2.950000e+002
      vertex   5.068948e+001 6.650000e+001 2.950000e+002
    endloop
  endfacet
  facet normal -7.043032e-001 7.043015e-001 -8.897420e-002
    outer loop
      vertex   5.090257e+001 6.675000e+001 2.952922e+002
      vertex   5.068948e+001 6.650000e+001 2.950000e+002
      vertex   5.062351e+001 6.650000e+001 2.955222e+002
    endloop
  endfacet
  facet normal -9.921147e-001 -5.071810e-006 -1.253333e-001
    outer loop
      vertex   5.065649e+001 6.575000e+001 2.952611e+002
      vertex   5.068948e+001 6.500000e+001 2.950000e+002
      vertex   5.062351e+001 6.500000e+001 2.955222e+002
    endloop
  endfacet
  facet normal -9.921129e-001 -0.000000e+000 -1.253476e-001
    outer loop
      vertex   5.065649e+001 6.575000e+001 2.952611e+002
      vertex   5.068948e+001 6.650000e+001 2.950000e+002
      vertex   5.068948e+001 6.500000e+001 2.950000e+002
    endloop
  endfacet
  facet normal -9.921147e-001 5.071810e-006 -1.253333e-001
    outer loop
      vertex   5.065649e+001 6.575000e+001 2.952611e+002
      vertex   5.062351e+001 6.650000e+001 2.955222e+002
      vertex   5.068948e+001 6.650000e+001 2.950000e+002
    endloop
  endfacet
  facet normal 7.099014e-001 7.043011e-001 0.000000e+000
    outer loop
      vertex   4.625801e+001 6.675000e+001 2.950000e+002
      vertex   4.600999e+001 6.700000e+001 2.953259e+002
      vertex   4.650604e+001 6.650000e+001 2.952632e+002
    endloop
  endfacet
  facet normal 1.000000e+000 0.000000e+000 0.000000e+000
    outer loop
      vertex   4.650604e+001 6.575000e+001 2.950000e+002
      vertex   4.650604e+001 6.650000e+001 2.952632e+002
      vertex   4.650604e+001 6.500000e+001 2.952632e+002
    endloop
  endfacet
  facet normal 1.000000e+000 0.000000e+000 0.000000e+000
    outer loop
      vertex   5.150000e+001 6.600000e+001 2.951000e+002
      vertex   5.150000e+001 6.700000e+001 2.985000e+002
      vertex   5.150000e+001 6.650000e+001 2.990000e+002
    endloop
  endfacet
  facet normal 1.000000e+000 0.000000e+000 0.000000e+000
    outer loop
      vertex   5.150000e+001 6.600000e+001 2.951000e+002
      vertex   5.150000e+001 6.650000e+001 2.990000e+002
      vertex   5.150000e+001 6.500000e+001 2.990000e+002
    endloop
  endfacet
  facet normal -9.921165e-001 0.000000e+000 -1.253189e-001
    outer loop
      vertex   5.065649e+001 6.575000e+001 2.952611e+002
      vertex   5.062351e+001 6.500000e+001 2.955222e+002
      vertex   5.062351e+001 6.650000e+001 2.955222e+002
    endloop
  endfacet
  facet normal 6.875984e-001 7.043026e-001 -1.765397e-001
    outer loop
      vertex   4.633126e+001 6.675000e+001 2.955798e+002
      vertex   4.663696e+001 6.650000e+001 2.957731e+002
      vertex   4.650604e+001 6.650000e+001 2.952632e+002
    endloop
  endfacet
  facet normal 9.685851e-001 0.000000e+000 -2.486825e-001
    outer loop
      vertex   4.657150e+001 6.575000e+001 2.955181e+002
      vertex   4.650604e+001 6.650000e+001 2.952632e+002
      vertex   4.663696e+001 6.650000e+001 2.957731e+002
    endloop
  endfacet
  facet normal 6.875961e-001 7.043042e-001 -1.765422e-001
    outer loop
      vertex   4.633126e+001 6.675000e+001 2.955798e+002
      vertex   4.650604e+001 6.650000e+001 2.952632e+002
      vertex   4.600999e+001 6.700000e+001 2.953259e+002
    endloop
  endfacet
  facet normal 9.685851e-001 0.000000e+000 -2.486825e-001
    outer loop
      vertex   4.657150e+001 6.575000e+001 2.955181e+002
      vertex   4.663696e+001 6.500000e+001 2.957731e+002
      vertex   4.650604e+001 6.500000e+001 2.952632e+002
    endloop
  endfacet
  facet normal 9.685851e-001 0.000000e+000 -2.486825e-001
    outer loop
      vertex   4.657150e+001 6.575000e+001 2.955181e+002
      vertex   4.650604e+001 6.500000e+001 2.952632e+002
      vertex   4.650604e+001 6.650000e+001 2.952632e+002
    endloop
  endfacet
  facet normal 0.000000e+000 -1.000000e+000 0.000000e+000
    outer loop
      vertex   4.635743e+001 6.500000e+001 2.990000e+002
      vertex   4.650604e+001 6.500000e+001 2.952632e+002
      vertex   4.663696e+001 6.500000e+001 2.957731e+002
    endloop
  endfacet
  facet normal -7.043038e-001 7.043006e-001 -8.897582e-002
    outer loop
      vertex   5.090257e+001 6.675000e+001 2.952922e+002
      vertex   5.062351e+001 6.650000e+001 2.955222e+002
      vertex   5.110780e+001 6.700000e+001 2.956466e+002
    endloop
  endfacet
  facet normal 0.000000e+000 1.000000e+000 0.000000e+000
    outer loop
      vertex   4.547897e+001 6.700000e+001 2.985000e+002
      vertex   4.617207e+001 6.700000e+001 2.959571e+002
      vertex   4.600999e+001 6.700000e+001 2.953259e+002
    endloop
  endfacet
  facet normal 6.875969e-001 7.043028e-001 -1.765447e-001
    outer loop
      vertex   4.633126e+001 6.675000e+001 2.955798e+002
      vertex   4.600999e+001 6.700000e+001 2.953259e+002
      vertex   4.617207e+001 6.700000e+001 2.959571e+002
    endloop
  endfacet
  facet normal 9.685851e-001 0.000000e+000 -2.486825e-001
    outer loop
      vertex   4.657150e+001 6.575000e+001 2.955181e+002
      vertex   4.663696e+001 6.650000e+001 2.957731e+002
      vertex   4.663696e+001 6.500000e+001 2.957731e+002
    endloop
  endfacet
  facet normal 0.000000e+000 -1.000000e+000 0.000000e+000
    outer loop
      vertex   5.150000e+001 6.500000e+001 2.990000e+002
      vertex   5.042973e+001 6.500000e+001 2.960117e+002
      vertex   5.062351e+001 6.500000e+001 2.955222e+002
    endloop
  endfacet
  facet normal -9.297768e-001 2.368378e-006 -3.681236e-001
    outer loop
      vertex   5.052662e+001 6.575000e+001 2.957670e+002
      vertex   5.062351e+001 6.500000e+001 2.955222e+002
      vertex   5.042973e+001 6.500000e+001 2.960117e+002
    endloop
  endfacet
  facet normal -9.297768e-001 -2.358942e-006 -3.681236e-001
    outer loop
      vertex   5.052662e+001 6.575000e+001 2.957670e+002
      vertex   5.042973e+001 6.650000e+001 2.960117e+002
      vertex   5.062351e+001 6.650000e+001 2.955222e+002
    endloop
  endfacet
  facet normal -9.297794e-001 -0.000000e+000 -3.681174e-001
    outer loop
      vertex   5.052662e+001 6.575000e+001 2.957670e+002
      vertex   5.062351e+001 6.650000e+001 2.955222e+002
      vertex   5.062351e+001 6.500000e+001 2.955222e+002
    endloop
  endfacet
  facet normal -6.600465e-001 7.043048e-001 -2.613302e-001
    outer loop
      vertex   5.075723e+001 6.675000e+001 2.958583e+002
      vertex   5.062351e+001 6.650000e+001 2.955222e+002
      vertex   5.042973e+001 6.650000e+001 2.960117e+002
    endloop
  endfacet
  facet normal -6.600566e-001 7.042985e-001 -2.613214e-001
    outer loop
      vertex   5.075723e+001 6.675000e+001 2.958583e+002
      vertex   5.110780e+001 6.700000e+001 2.956466e+002
      vertex   5.062351e+001 6.650000e+001 2.955222e+002
    endloop
  endfacet
  facet normal 6.875991e-001 7.043012e-001 -1.765427e-001
    outer loop
      vertex   4.633126e+001 6.675000e+001 2.955798e+002
      vertex   4.617207e+001 6.700000e+001 2.959571e+002
      vertex   4.663696e+001 6.650000e+001 2.957731e+002
    endloop
  endfacet
  facet normal -6.600572e-001 7.042968e-001 -2.613246e-001
    outer loop
      vertex   5.075723e+001 6.675000e+001 2.958583e+002
      vertex   5.086788e+001 6.700000e+001 2.962526e+002
      vertex   5.110780e+001 6.700000e+001 2.956466e+002
    endloop
  endfacet
  facet normal 0.000000e+000 1.000000e+000 -0.000000e+000
    outer loop
      vertex   5.150000e+001 6.700000e+001 2.985000e+002
      vertex   5.110780e+001 6.700000e+001 2.956466e+002
      vertex   5.086788e+001 6.700000e+001 2.962526e+002
    endloop
  endfacet
  facet normal -9.297743e-001 0.000000e+000 -3.681299e-001
    outer loop
      vertex   5.052662e+001 6.575000e+001 2.957670e+002
      vertex   5.042973e+001 6.500000e+001 2.960117e+002
      vertex   5.042973e+001 6.650000e+001 2.960117e+002
    endloop
  endfacet
  facet normal 0.000000e+000 -1.000000e+000 0.000000e+000
    outer loop
      vertex   4.635743e+001 6.500000e+001 2.990000e+002
      vertex   4.663696e+001 6.500000e+001 2.957731e+002
      vertex   4.689055e+001 6.500000e+001 2.962343e+002
    endloop
  endfacet
  facet normal 8.762881e-001 0.000000e+000 -4.817874e-001
    outer loop
      vertex   4.676375e+001 6.575000e+001 2.960037e+002
      vertex   4.663696e+001 6.500000e+001 2.957731e+002
      vertex   4.663696e+001 6.650000e+001 2.957731e+002
    endloop
  endfacet
  facet normal 6.220941e-001 7.042996e-001 -3.419954e-001
    outer loop
      vertex   4.654640e+001 6.675000e+001 2.961232e+002
      vertex   4.663696e+001 6.650000e+001 2.957731e+002
      vertex   4.617207e+001 6.700000e+001 2.959571e+002
    endloop
  endfacet
  facet normal 8.763015e-001 -9.804146e-006 -4.817629e-001
    outer loop
      vertex   4.676375e+001 6.575000e+001 2.960037e+002
      vertex   4.689055e+001 6.500000e+001 2.962343e+002
      vertex   4.663696e+001 6.500000e+001 2.957731e+002
    endloop
  endfacet
  facet normal 6.220840e-001 7.043054e-001 -3.420022e-001
    outer loop
      vertex   4.654640e+001 6.675000e+001 2.961232e+002
      vertex   4.689055e+001 6.650000e+001 2.962343e+002
      vertex   4.663696e+001 6.650000e+001 2.957731e+002
    endloop
  endfacet
  facet normal 8.763015e-001 9.804146e-006 -4.817629e-001
    outer loop
      vertex   4.676375e+001 6.575000e+001 2.960037e+002
      vertex   4.663696e+001 6.650000e+001 2.957731e+002
      vertex   4.689055e+001 6.650000e+001 2.962343e+002
    endloop
  endfacet
  facet normal -6.600466e-001 7.043039e-001 -2.613321e-001
    outer loop
      vertex   5.075723e+001 6.675000e+001 2.958583e+002
      vertex   5.042973e+001 6.650000e+001 2.960117e+002
      vertex   5.086788e+001 6.700000e+001 2.962526e+002
    endloop
  endfacet
  facet normal 0.000000e+000 1.000000e+000 -0.000000e+000
    outer loop
      vertex   4.648604e+001 6.700000e+001 2.965282e+002
      vertex   4.617207e+001 6.700000e+001 2.959571e+002
      vertex   4.547897e+001 6.700000e+001 2.985000e+002
    endloop
  endfacet
  facet normal 6.220948e-001 7.042949e-001 -3.420042e-001
    outer loop
      vertex   4.654640e+001 6.675000e+001 2.961232e+002
      vertex   4.617207e+001 6.700000e+001 2.959571e+002
      vertex   4.648604e+001 6.700000e+001 2.965282e+002
    endloop
  endfacet
  facet normal 8.763151e-001 0.000000e+000 -4.817385e-001
    outer loop
      vertex   4.676375e+001 6.575000e+001 2.960037e+002
      vertex   4.689055e+001 6.650000e+001 2.962343e+002
      vertex   4.689055e+001 6.500000e+001 2.962343e+002
    endloop
  endfacet
  facet normal -8.090246e-001 9.907634e-006 -5.877748e-001
    outer loop
      vertex   5.027502e+001 6.575000e+001 2.962246e+002
      vertex   5.012032e+001 6.650000e+001 2.964376e+002
      vertex   5.042973e+001 6.650000e+001 2.960117e+002
    endloop
  endfacet
  facet normal 0.000000e+000 -1.000000e+000 0.000000e+000
    outer loop
      vertex   5.150000e+001 6.500000e+001 2.990000e+002
      vertex   5.012032e+001 6.500000e+001 2.964376e+002
      vertex   5.042973e+001 6.500000e+001 2.960117e+002
    endloop
  endfacet
  facet normal -5.743409e-001 7.042844e-001 -4.172718e-001
    outer loop
      vertex   5.047568e+001 6.675000e+001 2.963704e+002
      vertex   5.042973e+001 6.650000e+001 2.960117e+002
      vertex   5.012032e+001 6.650000e+001 2.964376e+002
    endloop
  endfacet
  facet normal -8.090246e-001 -9.907634e-006 -5.877748e-001
    outer loop
      vertex   5.027502e+001 6.575000e+001 2.962246e+002
      vertex   5.042973e+001 6.500000e+001 2.960117e+002
      vertex   5.012032e+001 6.500000e+001 2.964376e+002
    endloop
  endfacet
  facet normal -8.090080e-001 -0.000000e+000 -5.877976e-001
    outer loop
      vertex   5.027502e+001 6.575000e+001 2.962246e+002
      vertex   5.042973e+001 6.650000e+001 2.960117e+002
      vertex   5.042973e+001 6.500000e+001 2.960117e+002
    endloop
  endfacet
  facet normal -5.743079e-001 7.043018e-001 -4.172881e-001
    outer loop
      vertex   5.047568e+001 6.675000e+001 2.963704e+002
      vertex   5.086788e+001 6.700000e+001 2.962526e+002
      vertex   5.042973e+001 6.650000e+001 2.960117e+002
    endloop
  endfacet
  facet normal 6.220838e-001 7.043016e-001 -3.420101e-001
    outer loop
      vertex   4.654640e+001 6.675000e+001 2.961232e+002
      vertex   4.648604e+001 6.700000e+001 2.965282e+002
      vertex   4.689055e+001 6.650000e+001 2.962343e+002
    endloop
  endfacet
  facet normal -8.090411e-001 0.000000e+000 -5.877519e-001
    outer loop
      vertex   5.027502e+001 6.575000e+001 2.962246e+002
      vertex   5.012032e+001 6.500000e+001 2.964376e+002
      vertex   5.012032e+001 6.650000e+001 2.964376e+002
    endloop
  endfacet
  facet normal 7.289692e-001 0.000000e+000 -6.845464e-001
    outer loop
      vertex   4.707072e+001 6.575000e+001 2.964262e+002
      vertex   4.689055e+001 6.650000e+001 2.962343e+002
      vertex   4.725089e+001 6.650000e+001 2.966181e+002
    endloop
  endfacet
  facet normal 7.289692e-001 0.000000e+000 -6.845464e-001
    outer loop
      vertex   4.707072e+001 6.575000e+001 2.964262e+002
      vertex   4.725089e+001 6.500000e+001 2.966181e+002
      vertex   4.689055e+001 6.500000e+001 2.962343e+002
    endloop
  endfacet
  facet normal 7.289692e-001 0.000000e+000 -6.845464e-001
    outer loop
      vertex   4.707072e+001 6.575000e+001 2.964262e+002
      vertex   4.689055e+001 6.500000e+001 2.962343e+002
      vertex   4.689055e+001 6.650000e+001 2.962343e+002
    endloop
  endfacet
  facet normal 5.175141e-001 7.043010e-001 -4.859417e-001
    outer loop
      vertex   4.688992e+001 6.675000e+001 2.965960e+002
      vertex   4.689055e+001 6.650000e+001 2.962343e+002
      vertex   4.648604e+001 6.700000e+001 2.965282e+002
    endloop
  endfacet
  facet normal 0.000000e+000 -1.000000e+000 0.000000e+000
    outer loop
      vertex   4.635743e+001 6.500000e+001 2.990000e+002
      vertex   4.689055e+001 6.500000e+001 2.962343e+002
      vertex   4.725089e+001 6.500000e+001 2.966181e+002
    endloop
  endfacet
  facet normal 5.174865e-001 7.043146e-001 -4.859512e-001
    outer loop
      vertex   4.688992e+001 6.675000e+001 2.965960e+002
      vertex   4.725089e+001 6.650000e+001 2.966181e+002
      vertex   4.689055e+001 6.650000e+001 2.962343e+002
    endloop
  endfacet
  facet normal 0.000000e+000 1.000000e+000 -0.000000e+000
    outer loop
      vertex   5.150000e+001 6.700000e+001 2.985000e+002
      vertex   5.086788e+001 6.700000e+001 2.962526e+002
      vertex   5.048480e+001 6.700000e+001 2.967798e+002
    endloop
  endfacet
  facet normal -5.743089e-001 7.043124e-001 -4.172690e-001
    outer loop
      vertex   5.047568e+001 6.675000e+001 2.963704e+002
      vertex   5.048480e+001 6.700000e+001 2.967798e+002
      vertex   5.086788e+001 6.700000e+001 2.962526e+002
    endloop
  endfacet
  facet normal -5.743433e-001 7.042921e-001 -4.172558e-001
    outer loop
      vertex   5.047568e+001 6.675000e+001 2.963704e+002
      vertex   5.012032e+001 6.650000e+001 2.964376e+002
      vertex   5.048480e+001 6.700000e+001 2.967798e+002
    endloop
  endfacet
  facet normal 7.289692e-001 0.000000e+000 -6.845464e-001
    outer loop
      vertex   4.707072e+001 6.575000e+001 2.964262e+002
      vertex   4.725089e+001 6.650000e+001 2.966181e+002
      vertex   4.725089e+001 6.500000e+001 2.966181e+002
    endloop
  endfacet
  facet normal 0.000000e+000 -1.000000e+000 0.000000e+000
    outer loop
      vertex   5.150000e+001 6.500000e+001 2.990000e+002
      vertex   4.971472e+001 6.500000e+001 2.967731e+002
      vertex   5.012032e+001 6.500000e+001 2.964376e+002
    endloop
  endfacet
  facet normal -4.524904e-001 7.042921e-001 -5.470147e-001
    outer loop
      vertex   5.007562e+001 6.675000e+001 2.967964e+002
      vertex   5.012032e+001 6.650000e+001 2.964376e+002
      vertex   4.971472e+001 6.650000e+001 2.967731e+002
    endloop
  endfacet
  facet normal -4.524955e-001 7.042897e-001 -5.470136e-001
    outer loop
      vertex   5.007562e+001 6.675000e+001 2.967964e+002
      vertex   5.048480e+001 6.700000e+001 2.967798e+002
      vertex   5.012032e+001 6.650000e+001 2.964376e+002
    endloop
  endfacet
  facet normal -6.373909e-001 -1.623033e-006 -7.705407e-001
    outer loop
      vertex   4.991752e+001 6.575000e+001 2.966053e+002
      vertex   5.012032e+001 6.500000e+001 2.964376e+002
      vertex   4.971472e+001 6.500000e+001 2.967731e+002
    endloop
  endfacet
  facet normal -6.373909e-001 1.623033e-006 -7.705407e-001
    outer loop
      vertex   4.991752e+001 6.575000e+001 2.966053e+002
      vertex   4.971472e+001 6.650000e+001 2.967731e+002
      vertex   5.012032e+001 6.650000e+001 2.964376e+002
    endloop
  endfacet
  facet normal -6.373873e-001 -0.000000e+000 -7.705435e-001
    outer loop
      vertex   4.991752e+001 6.575000e+001 2.966053e+002
      vertex   5.012032e+001 6.650000e+001 2.964376e+002
      vertex   5.012032e+001 6.500000e+001 2.964376e+002
    endloop
  endfacet
  facet normal 0.000000e+000 1.000000e+000 -0.000000e+000
    outer loop
      vertex   4.693218e+001 6.700000e+001 2.970033e+002
      vertex   4.648604e+001 6.700000e+001 2.965282e+002
      vertex   4.547897e+001 6.700000e+001 2.985000e+002
    endloop
  endfacet
  facet normal 5.175089e-001 7.042848e-001 -4.859707e-001
    outer loop
      vertex   4.688992e+001 6.675000e+001 2.965960e+002
      vertex   4.648604e+001 6.700000e+001 2.965282e+002
      vertex   4.693218e+001 6.700000e+001 2.970033e+002
    endloop
  endfacet
  facet normal 5.174791e-001 7.043017e-001 -4.859780e-001
    outer loop
      vertex   4.688992e+001 6.675000e+001 2.965960e+002
      vertex   4.693218e+001 6.700000e+001 2.970033e+002
      vertex   4.725089e+001 6.650000e+001 2.966181e+002
    endloop
  endfacet
  facet normal -6.373944e-001 0.000000e+000 -7.705376e-001
    outer loop
      vertex   4.991752e+001 6.575000e+001 2.966053e+002
      vertex   4.971472e+001 6.500000e+001 2.967731e+002
      vertex   4.971472e+001 6.650000e+001 2.967731e+002
    endloop
  endfacet
  facet normal 5.358022e-001 0.000000e+000 -8.443436e-001
    outer loop
      vertex   4.747312e+001 6.575000e+001 2.967591e+002
      vertex   4.725089e+001 6.500000e+001 2.966181e+002
      vertex   4.725089e+001 6.650000e+001 2.966181e+002
    endloop
  endfacet
  facet normal 3.803926e-001 7.043121e-001 -5.993714e-001
    outer loop
      vertex   4.734022e+001 6.675000e+001 2.969685e+002
      vertex   4.769535e+001 6.650000e+001 2.969001e+002
      vertex   4.725089e+001 6.650000e+001 2.966181e+002
    endloop
  endfacet
  facet normal 5.358468e-001 1.855069e-005 -8.443152e-001
    outer loop
      vertex   4.747312e+001 6.575000e+001 2.967591e+002
      vertex   4.725089e+001 6.650000e+001 2.966181e+002
      vertex   4.769535e+001 6.650000e+001 2.969001e+002
    endloop
  endfacet
  facet normal 3.804132e-001 7.043023e-001 -5.993697e-001
    outer loop
      vertex   4.734022e+001 6.675000e+001 2.969685e+002
      vertex   4.725089e+001 6.650000e+001 2.966181e+002
      vertex   4.693218e+001 6.700000e+001 2.970033e+002
    endloop
  endfacet
  facet normal 5.358468e-001 -1.855069e-005 -8.443152e-001
    outer loop
      vertex   4.747312e+001 6.575000e+001 2.967591e+002
      vertex   4.769535e+001 6.500000e+001 2.969001e+002
      vertex   4.725089e+001 6.500000e+001 2.966181e+002
    endloop
  endfacet
  facet normal 0.000000e+000 -1.000000e+000 0.000000e+000
    outer loop
      vertex   4.635743e+001 6.500000e+001 2.990000e+002
      vertex   4.725089e+001 6.500000e+001 2.966181e+002
      vertex   4.769535e+001 6.500000e+001 2.969001e+002
    endloop
  endfacet
  facet normal 5.358914e-001 0.000000e+000 -8.442870e-001
    outer loop
      vertex   4.747312e+001 6.575000e+001 2.967591e+002
      vertex   4.769535e+001 6.650000e+001 2.969001e+002
      vertex   4.769535e+001 6.500000e+001 2.969001e+002
    endloop
  endfacet
  facet normal -4.525060e-001 7.043111e-001 -5.469773e-001
    outer loop
      vertex   5.007562e+001 6.675000e+001 2.967964e+002
      vertex   4.971472e+001 6.650000e+001 2.967731e+002
      vertex   4.998264e+001 6.700000e+001 2.971953e+002
    endloop
  endfacet
  facet normal -4.258110e-001 -1.840904e-005 -9.048121e-001
    outer loop
      vertex   4.947657e+001 6.575000e+001 2.968852e+002
      vertex   4.923842e+001 6.650000e+001 2.969972e+002
      vertex   4.971472e+001 6.650000e+001 2.967731e+002
    endloop
  endfacet
  facet normal -3.022897e-001 7.042871e-001 -6.423399e-001
    outer loop
      vertex   4.958218e+001 6.675000e+001 2.971096e+002
      vertex   4.971472e+001 6.650000e+001 2.967731e+002
      vertex   4.923842e+001 6.650000e+001 2.969972e+002
    endloop
  endfacet
  facet normal 0.000000e+000 -1.000000e+000 0.000000e+000
    outer loop
      vertex   4.635743e+001 6.500000e+001 2.990000e+002
      vertex   4.923842e+001 6.500000e+001 2.969972e+002
      vertex   4.971472e+001 6.500000e+001 2.967731e+002
    endloop
  endfacet
  facet normal -4.258110e-001 1.840904e-005 -9.048121e-001
    outer loop
      vertex   4.947657e+001 6.575000e+001 2.968852e+002
      vertex   4.971472e+001 6.500000e+001 2.967731e+002
      vertex   4.923842e+001 6.500000e+001 2.969972e+002
    endloop
  endfacet
  facet normal -3.022376e-001 7.043116e-001 -6.423376e-001
    outer loop
      vertex   4.958218e+001 6.675000e+001 2.971096e+002
      vertex   4.998264e+001 6.700000e+001 2.971953e+002
      vertex   4.971472e+001 6.650000e+001 2.967731e+002
    endloop
  endfacet
  facet normal 0.000000e+000 -1.000000e+000 0.000000e+000
    outer loop
      vertex   5.150000e+001 6.500000e+001 2.990000e+002
      vertex   4.635743e+001 6.500000e+001 2.990000e+002
      vertex   4.971472e+001 6.500000e+001 2.967731e+002
    endloop
  endfacet
  facet normal -4.258584e-001 -0.000000e+000 -9.047898e-001
    outer loop
      vertex   4.947657e+001 6.575000e+001 2.968852e+002
      vertex   4.971472e+001 6.650000e+001 2.967731e+002
      vertex   4.971472e+001 6.500000e+001 2.967731e+002
    endloop
  endfacet
  facet normal -4.525068e-001 7.043107e-001 -5.469772e-001
    outer loop
      vertex   5.007562e+001 6.675000e+001 2.967964e+002
      vertex   4.998264e+001 6.700000e+001 2.971953e+002
      vertex   5.048480e+001 6.700000e+001 2.967798e+002
    endloop
  endfacet
  facet normal 0.000000e+000 1.000000e+000 -0.000000e+000
    outer loop
      vertex   5.150000e+001 6.700000e+001 2.985000e+002
      vertex   5.048480e+001 6.700000e+001 2.967798e+002
      vertex   4.998264e+001 6.700000e+001 2.971953e+002
    endloop
  endfacet
  facet normal -4.257635e-001 0.000000e+000 -9.048344e-001
    outer loop
      vertex   4.947657e+001 6.575000e+001 2.968852e+002
      vertex   4.923842e+001 6.500000e+001 2.969972e+002
      vertex   4.923842e+001 6.650000e+001 2.969972e+002
    endloop
  endfacet
  facet normal 3.803694e-001 7.042902e-001 -5.994118e-001
    outer loop
      vertex   4.734022e+001 6.675000e+001 2.969685e+002
      vertex   4.748246e+001 6.700000e+001 2.973525e+002
      vertex   4.769535e+001 6.650000e+001 2.969001e+002
    endloop
  endfacet
  facet normal 3.090030e-001 -7.831814e-007 -9.510611e-001
    outer loop
      vertex   4.794566e+001 6.575000e+001 2.969815e+002
      vertex   4.769535e+001 6.650000e+001 2.969001e+002
      vertex   4.819598e+001 6.650000e+001 2.970628e+002
    endloop
  endfacet
  facet normal 0.000000e+000 -1.000000e+000 0.000000e+000
    outer loop
      vertex   4.635743e+001 6.500000e+001 2.990000e+002
      vertex   4.769535e+001 6.500000e+001 2.969001e+002
      vertex   4.819598e+001 6.500000e+001 2.970628e+002
    endloop
  endfacet
  facet normal 3.090051e-001 0.000000e+000 -9.510604e-001
    outer loop
      vertex   4.794566e+001 6.575000e+001 2.969815e+002
      vertex   4.769535e+001 6.500000e+001 2.969001e+002
      vertex   4.769535e+001 6.650000e+001 2.969001e+002
    endloop
  endfacet
  facet normal 3.090030e-001 7.831814e-007 -9.510611e-001
    outer loop
      vertex   4.794566e+001 6.575000e+001 2.969815e+002
      vertex   4.819598e+001 6.500000e+001 2.970628e+002
      vertex   4.769535e+001 6.500000e+001 2.969001e+002
    endloop
  endfacet
  facet normal 2.193512e-001 7.042857e-001 -6.751789e-001
    outer loop
      vertex   4.786902e+001 6.675000e+001 2.972173e+002
      vertex   4.769535e+001 6.650000e+001 2.969001e+002
      vertex   4.748246e+001 6.700000e+001 2.973525e+002
    endloop
  endfacet
  facet normal 2.193689e-001 7.042773e-001 -6.751820e-001
    outer loop
      vertex   4.786902e+001 6.675000e+001 2.972173e+002
      vertex   4.819598e+001 6.650000e+001 2.970628e+002
      vertex   4.769535e+001 6.650000e+001 2.969001e+002
    endloop
  endfacet
  facet normal 3.803939e-001 7.042766e-001 -5.994121e-001
    outer loop
      vertex   4.734022e+001 6.675000e+001 2.969685e+002
      vertex   4.693218e+001 6.700000e+001 2.970033e+002
      vertex   4.748246e+001 6.700000e+001 2.973525e+002
    endloop
  endfacet
  facet normal 3.090008e-001 0.000000e+000 -9.510617e-001
    outer loop
      vertex   4.794566e+001 6.575000e+001 2.969815e+002
      vertex   4.819598e+001 6.650000e+001 2.970628e+002
      vertex   4.819598e+001 6.500000e+001 2.970628e+002
    endloop
  endfacet
  facet normal -1.330197e-001 7.042839e-001 -6.973449e-001
    outer loop
      vertex   4.902636e+001 6.675000e+001 2.972902e+002
      vertex   4.923842e+001 6.650000e+001 2.969972e+002
      vertex   4.872134e+001 6.650000e+001 2.970959e+002
    endloop
  endfacet
  facet normal -3.023036e-001 7.042980e-001 -6.423216e-001
    outer loop
      vertex   4.958218e+001 6.675000e+001 2.971096e+002
      vertex   4.923842e+001 6.650000e+001 2.969972e+002
      vertex   4.939293e+001 6.700000e+001 2.974727e+002
    endloop
  endfacet
  facet normal -1.873732e-001 0.000000e+000 -9.822888e-001
    outer loop
      vertex   4.897988e+001 6.575000e+001 2.970465e+002
      vertex   4.923842e+001 6.500000e+001 2.969972e+002
      vertex   4.872134e+001 6.500000e+001 2.970959e+002
    endloop
  endfacet
  facet normal 0.000000e+000 -1.000000e+000 0.000000e+000
    outer loop
      vertex   4.635743e+001 6.500000e+001 2.990000e+002
      vertex   4.872134e+001 6.500000e+001 2.970959e+002
      vertex   4.923842e+001 6.500000e+001 2.969972e+002
    endloop
  endfacet
  facet normal -1.329905e-001 7.042982e-001 -6.973360e-001
    outer loop
      vertex   4.902636e+001 6.675000e+001 2.972902e+002
      vertex   4.939293e+001 6.700000e+001 2.974727e+002
      vertex   4.923842e+001 6.650000e+001 2.969972e+002
    endloop
  endfacet
  facet normal -1.873732e-001 0.000000e+000 -9.822888e-001
    outer loop
      vertex   4.897988e+001 6.575000e+001 2.970465e+002
      vertex   4.872134e+001 6.650000e+001 2.970959e+002
      vertex   4.923842e+001 6.650000e+001 2.969972e+002
    endloop
  endfacet
  facet normal -1.873732e-001 -0.000000e+000 -9.822888e-001
    outer loop
      vertex   4.897988e+001 6.575000e+001 2.970465e+002
      vertex   4.923842e+001 6.650000e+001 2.969972e+002
      vertex   4.923842e+001 6.500000e+001 2.969972e+002
    endloop
  endfacet
  facet normal 0.000000e+000 1.000000e+000 -0.000000e+000
    outer loop
      vertex   4.748246e+001 6.700000e+001 2.973525e+002
      vertex   4.693218e+001 6.700000e+001 2.970033e+002
      vertex   4.547897e+001 6.700000e+001 2.985000e+002
    endloop
  endfacet
  facet normal -1.873732e-001 0.000000e+000 -9.822888e-001
    outer loop
      vertex   4.897988e+001 6.575000e+001 2.970465e+002
      vertex   4.872134e+001 6.500000e+001 2.970959e+002
      vertex   4.872134e+001 6.650000e+001 2.970959e+002
    endloop
  endfacet
  facet normal 4.457151e-002 7.043084e-001 -7.084936e-001
    outer loop
      vertex   4.844309e+001 6.675000e+001 2.973269e+002
      vertex   4.872134e+001 6.650000e+001 2.970959e+002
      vertex   4.819598e+001 6.650000e+001 2.970628e+002
    endloop
  endfacet
  facet normal 4.457458e-002 7.043067e-001 -7.084950e-001
    outer loop
      vertex   4.844309e+001 6.675000e+001 2.973269e+002
      vertex   4.819598e+001 6.650000e+001 2.970628e+002
      vertex   4.810229e+001 6.700000e+001 2.975540e+002
    endloop
  endfacet
  facet normal 0.000000e+000 -1.000000e+000 0.000000e+000
    outer loop
      vertex   4.635743e+001 6.500000e+001 2.990000e+002
      vertex   4.819598e+001 6.500000e+001 2.970628e+002
      vertex   4.872134e+001 6.500000e+001 2.970959e+002
    endloop
  endfacet
  facet normal 6.278613e-002 2.030373e-005 -9.980270e-001
    outer loop
      vertex   4.845866e+001 6.575000e+001 2.970793e+002
      vertex   4.819598e+001 6.650000e+001 2.970628e+002
      vertex   4.872134e+001 6.650000e+001 2.970959e+002
    endloop
  endfacet
  facet normal 2.194082e-001 7.043038e-001 -6.751417e-001
    outer loop
      vertex   4.786902e+001 6.675000e+001 2.972173e+002
      vertex   4.810229e+001 6.700000e+001 2.975540e+002
      vertex   4.819598e+001 6.650000e+001 2.970628e+002
    endloop
  endfacet
  facet normal 6.278613e-002 -2.030609e-005 -9.980270e-001
    outer loop
      vertex   4.845866e+001 6.575000e+001 2.970793e+002
      vertex   4.872134e+001 6.500000e+001 2.970959e+002
      vertex   4.819598e+001 6.500000e+001 2.970628e+002
    endloop
  endfacet
  facet normal 6.272838e-002 0.000000e+000 -9.980306e-001
    outer loop
      vertex   4.845866e+001 6.575000e+001 2.970793e+002
      vertex   4.819598e+001 6.500000e+001 2.970628e+002
      vertex   4.819598e+001 6.650000e+001 2.970628e+002
    endloop
  endfacet
  facet normal 6.284387e-002 0.000000e+000 -9.980233e-001
    outer loop
      vertex   4.845866e+001 6.575000e+001 2.970793e+002
      vertex   4.872134e+001 6.650000e+001 2.970959e+002
      vertex   4.872134e+001 6.500000e+001 2.970959e+002
    endloop
  endfacet
  facet normal 4.457383e-002 7.043096e-001 -7.084922e-001
    outer loop
      vertex   4.844309e+001 6.675000e+001 2.973269e+002
      vertex   4.875274e+001 6.700000e+001 2.975949e+002
      vertex   4.872134e+001 6.650000e+001 2.970959e+002
    endloop
  endfacet
  facet normal -1.330582e-001 7.043070e-001 -6.973143e-001
    outer loop
      vertex   4.902636e+001 6.675000e+001 2.972902e+002
      vertex   4.872134e+001 6.650000e+001 2.970959e+002
      vertex   4.875274e+001 6.700000e+001 2.975949e+002
    endloop
  endfacet
  facet normal -3.022519e-001 7.043266e-001 -6.423144e-001
    outer loop
      vertex   4.958218e+001 6.675000e+001 2.971096e+002
      vertex   4.939293e+001 6.700000e+001 2.974727e+002
      vertex   4.998264e+001 6.700000e+001 2.971953e+002
    endloop
  endfacet
  facet normal 0.000000e+000 1.000000e+000 -0.000000e+000
    outer loop
      vertex   5.150000e+001 6.700000e+001 2.985000e+002
      vertex   4.998264e+001 6.700000e+001 2.971953e+002
      vertex   4.939293e+001 6.700000e+001 2.974727e+002
    endloop
  endfacet
  facet normal 2.193861e-001 7.043164e-001 -6.751357e-001
    outer loop
      vertex   4.786902e+001 6.675000e+001 2.972173e+002
      vertex   4.748246e+001 6.700000e+001 2.973525e+002
      vertex   4.810229e+001 6.700000e+001 2.975540e+002
    endloop
  endfacet
  facet normal -1.330267e-001 7.043258e-001 -6.973013e-001
    outer loop
      vertex   4.902636e+001 6.675000e+001 2.972902e+002
      vertex   4.875274e+001 6.700000e+001 2.975949e+002
      vertex   4.939293e+001 6.700000e+001 2.974727e+002
    endloop
  endfacet
  facet normal 4.457638e-002 7.043080e-001 -7.084936e-001
    outer loop
      vertex   4.844309e+001 6.675000e+001 2.973269e+002
      vertex   4.810229e+001 6.700000e+001 2.975540e+002
      vertex   4.875274e+001 6.700000e+001 2.975949e+002
    endloop
  endfacet
  facet normal 0.000000e+000 1.000000e+000 -0.000000e+000
    outer loop
      vertex   4.810229e+001 6.700000e+001 2.975540e+002
      vertex   4.748246e+001 6.700000e+001 2.973525e+002
      vertex   4.547897e+001 6.700000e+001 2.985000e+002
    endloop
  endfacet
  facet normal -0.000000e+000 1.000000e+000 -0.000000e+000
    outer loop
      vertex   4.939293e+001 6.700000e+001 2.974727e+002
      vertex   4.875274e+001 6.700000e+001 2.975949e+002
      vertex   4.547897e+001 6.700000e+001 2.985000e+002
    endloop
  endfacet
  facet normal 0.000000e+000 1.000000e+000 -0.000000e+000
    outer loop
      vertex   5.150000e+001 6.700000e+001 2.985000e+002
      vertex   4.939293e+001 6.700000e+001 2.974727e+002
      vertex   4.547897e+001 6.700000e+001 2.985000e+002
    endloop
  endfacet
  facet normal 0.000000e+000 1.000000e+000 -0.000000e+000
    outer loop
      vertex   4.875274e+001 6.700000e+001 2.975949e+002
      vertex   4.810229e+001 6.700000e+001 2.975540e+002
      vertex   4.547897e+001 6.700000e+001 2.985000e+002
    endloop
  endfacet
  facet normal 0.000000e+000 7.071068e-001 7.071068e-001
    outer loop
      vertex   3.691477e+001 6.672195e+001 2.987500e+002
      vertex   4.547897e+001 6.697195e+001 2.985000e+002
      vertex   2.852103e+001 6.697195e+001 2.985000e+002
    endloop
  endfacet
  facet normal 0.000000e+000 7.071068e-001 7.071068e-001
    outer loop
      vertex   4.848948e+001 6.675000e+001 2.987500e+002
      vertex   4.547897e+001 6.700000e+001 2.985000e+002
      vertex   4.547897e+001 6.650000e+001 2.990000e+002
    endloop
  endfacet
  facet normal -1.000000e+000 0.000000e+000 0.000000e+000
    outer loop
      vertex   4.547897e+001 6.700000e+001 2.985000e+002
      vertex   4.547897e+001 6.697195e+001 2.985000e+002
      vertex   4.547897e+001 6.650000e+001 2.990000e+002
    endloop
  endfacet
  facet normal -1.000000e+000 0.000000e+000 0.000000e+000
    outer loop
      vertex   4.547897e+001 6.697195e+001 2.985000e+002
      vertex   4.547897e+001 6.647195e+001 2.990000e+002
      vertex   4.547897e+001 6.650000e+001 2.990000e+002
    endloop
  endfacet
  facet normal 0.000000e+000 7.071068e-001 7.071068e-001
    outer loop
      vertex   3.691477e+001 6.672195e+001 2.987500e+002
      vertex   4.547897e+001 6.647195e+001 2.990000e+002
      vertex   4.547897e+001 6.697195e+001 2.985000e+002
    endloop
  endfacet
  facet normal 0.000000e+000 7.071068e-001 7.071068e-001
    outer loop
      vertex   3.691477e+001 6.672195e+001 2.987500e+002
      vertex   2.852103e+001 6.697195e+001 2.985000e+002
      vertex   2.818012e+001 6.647195e+001 2.990000e+002
    endloop
  endfacet
  facet normal 0.000000e+000 7.071068e-001 7.071068e-001
    outer loop
      vertex   4.848948e+001 6.675000e+001 2.987500e+002
      vertex   5.150000e+001 6.650000e+001 2.990000e+002
      vertex   5.150000e+001 6.700000e+001 2.985000e+002
    endloop
  endfacet
  facet normal 0.000000e+000 7.071068e-001 7.071068e-001
    outer loop
      vertex   4.848948e+001 6.675000e+001 2.987500e+002
      vertex   5.150000e+001 6.700000e+001 2.985000e+002
      vertex   4.547897e+001 6.700000e+001 2.985000e+002
    endloop
  endfacet
  facet normal -0.000000e+000 7.071068e-001 7.071068e-001
    outer loop
      vertex   3.691477e+001 6.672195e+001 2.987500e+002
      vertex   2.818012e+001 6.647195e+001 2.990000e+002
      vertex   4.547897e+001 6.647195e+001 2.990000e+002
    endloop
  endfacet
  facet normal -0.000000e+000 7.071068e-001 7.071068e-001
    outer loop
      vertex   4.848948e+001 6.675000e+001 2.987500e+002
      vertex   4.547897e+001 6.650000e+001 2.990000e+002
      vertex   5.150000e+001 6.650000e+001 2.990000e+002
    endloop
  endfacet
  facet normal -0.000000e+000 0.000000e+000 1.000000e+000
    outer loop
      vertex   4.547897e+001 6.647195e+001 2.990000e+002
      vertex   2.818012e+001 6.647195e+001 2.990000e+002
      vertex   4.635743e+001 6.500000e+001 2.990000e+002
    endloop
  endfacet
  facet normal 0.000000e+000 0.000000e+000 1.000000e+000
    outer loop
      vertex   5.150000e+001 6.500000e+001 2.990000e+002
      vertex   4.547897e+001 6.650000e+001 2.990000e+002
      vertex   4.635743e+001 6.500000e+001 2.990000e+002
    endloop
  endfacet
  facet normal -0.000000e+000 0.000000e+000 1.000000e+000
    outer loop
      vertex   5.150000e+001 6.650000e+001 2.990000e+002
      vertex   4.547897e+001 6.650000e+001 2.990000e+002
      vertex   5.150000e+001 6.500000e+001 2.990000e+002
    endloop
  endfacet
  facet normal 0.000000e+000 0.000000e+000 1.000000e+000
    outer loop
      vertex   4.634261e+001 6.497195e+001 2.990000e+002
      vertex   2.818012e+001 6.647195e+001 2.990000e+002
      vertex   2.765739e+001 6.497195e+001 2.990000e+002
    endloop
  endfacet
  facet normal -0.000000e+000 0.000000e+000 1.000000e+000
    outer loop
      vertex   2.818012e+001 6.647195e+001 2.990000e+002
      vertex   2.743906e+001 6.538506e+001 2.990000e+002
      vertex   2.765739e+001 6.497195e+001 2.990000e+002
    endloop
  endfacet
  facet normal 0.000000e+000 0.000000e+000 1.000000e+000
    outer loop
      vertex   4.635743e+001 6.500000e+001 2.990000e+002
      vertex   2.818012e+001 6.647195e+001 2.990000e+002
      vertex   4.634261e+001 6.497195e+001 2.990000e+002
    endloop
  endfacet
  facet normal -0.000000e+000 0.000000e+000 1.000000e+000
    outer loop
      vertex   4.547897e+001 6.650000e+001 2.990000e+002
      vertex   4.547897e+001 6.647195e+001 2.990000e+002
      vertex   4.635743e+001 6.500000e+001 2.990000e+002
    endloop
  endfacet
endsolid
